<?xml version="1.0" encoding="utf-8"?><!-- Generator: Adobe Illustrator 28.0.0, SVG Export Plug-In . SVG Version: 6.00 Build 0)  --><svg version="1.1" id="レイヤー_1" xmlns="http://www.w3.org/2000/svg" xmlns:xlink="http://www.w3.org/1999/xlink" x="0px"	 y="0px" viewBox="0 0 182 57" style="enable-background:new 0 0 182 57;" xml:space="preserve"><style type="text/css">	.st0{fill:#231815;}	.st1{fill:#E92322;}</style><g id="グループ_22" transform="translate(114.035 2.714)">	<path id="パス_749" class="st0" d="M-44.8,39.01c0,0.12,0.1,0.22,0.22,0.22h2.87c0.12,0,0.22-0.1,0.22-0.22v-0.74		c0-0.12,0.1-0.22,0.22-0.22h9.92c0.12,0,0.22,0.1,0.22,0.22l0,0v0.74c0,0.12,0.1,0.22,0.22,0.22h2.84c0.12,0,0.22-0.1,0.22-0.22		l0,0V17.68c0-0.12-0.1-0.22-0.22-0.22c0,0,0,0,0,0h-16.52c-0.12,0-0.22,0.1-0.22,0.22V39.01z M-31.45,20.67		c0.12,0,0.22,0.1,0.22,0.22l0,0v4.83c0,0.12-0.1,0.22-0.22,0.22h-9.81c-0.12,0-0.21-0.1-0.21-0.22c0,0,0,0,0,0V20.9		c0-0.12,0.09-0.22,0.21-0.22c0,0,0,0,0,0L-31.45,20.67L-31.45,20.67z M-31.45,29.13c0.12,0,0.22,0.1,0.22,0.22v5.24		c0,0.12-0.1,0.22-0.22,0.22l0,0h-9.81c-0.12,0-0.21-0.1-0.21-0.22c0,0,0,0,0,0v-5.23c0-0.12,0.09-0.21,0.21-0.22c0,0,0,0,0,0h0		L-31.45,29.13z"/>	<path id="パス_750" class="st0" d="M-4.62,39.34c0.12,0,0.22-0.1,0.22-0.22v-3.15c0-0.12,0.1-0.22,0.22-0.22c0,0,0,0,0,0h3.85		c0.12,0,0.22-0.1,0.22-0.22l0,0v-1.52c0-0.12,0.1-0.12,0.14-0.06c1.23,1.56,2.62,2.98,4.16,4.24c0.26,0.21,0.4,0.33,0.4,0.33		s0.17,0.04,0.17-0.08v-4.08c0.01-0.1-0.02-0.21-0.08-0.3l-0.24-0.19c-4.01-3.5-6.45-7.62-6.88-9.74c0-0.12,0-0.19,0.1-0.19h6.88		c0.12,0,0.22-0.1,0.22-0.22v-2.79c0-0.12-0.1-0.22-0.22-0.22c0,0,0,0,0,0h-8.6c-0.12,0-0.22-0.1-0.22-0.22l0,0v-3.85		c0-0.12-0.1-0.22-0.22-0.22h-2.95c-0.12,0-0.22,0.1-0.22,0.22v3.84c0,0.12-0.1,0.22-0.22,0.22l0,0h-8.6c-0.12,0-0.22,0.1-0.22,0.22		v2.77c0,0.12,0.1,0.22,0.22,0.22l0,0h6.88c0.12,0,0.13,0.07,0.11,0.19c-0.43,2.12-2.88,6.24-6.89,9.74l-0.24,0.22		c-0.06,0.09-0.09,0.19-0.08,0.3v4.08c0,0.12,0.08,0.16,0.18,0.08c0.13-0.12,0.26-0.23,0.4-0.33c1.54-1.25,2.93-2.67,4.16-4.24		c0.04-0.06,0.14-0.06,0.14,0.06v1.52c0,0.12,0.1,0.22,0.22,0.22l0,0h3.85c0.12,0,0.22,0.1,0.22,0.22v3.15		c0,0.12,0.1,0.22,0.22,0.22l0,0L-4.62,39.34z M-7.55,32.36c0,0.12-0.1,0.22-0.22,0.22h-2.94c-0.12,0-0.19-0.08-0.1-0.19		c1.24-1.75,2.3-3.61,3.17-5.57c0.05-0.12,0.1-0.1,0.1,0L-7.55,32.36z M-4.4,26.83c0-0.12,0.04-0.14,0.09,0		c0.87,1.96,1.93,3.84,3.17,5.59c0.08,0.12,0,0.19-0.11,0.19h-2.94c-0.12,0-0.22-0.1-0.22-0.22L-4.4,26.83z"/>	<path id="パス_751" class="st0" d="M27.92,23.97h8.33c0.12,0,0.22-0.09,0.22-0.21v-2.84c0-0.13-0.1-0.23-0.22-0.23h-8.5		c-0.12,0-0.22-0.1-0.22-0.22v-3.8c0.01-0.12-0.08-0.22-0.2-0.22c-0.01,0-0.01,0-0.02,0H24.1c-0.12,0-0.22,0.1-0.22,0.22		c0,0,0,0,0,0v3.8c0,0.12-0.1,0.22-0.22,0.22H15.2c-0.12,0-0.22,0.11-0.22,0.23v2.84c0,0.12,0.1,0.22,0.22,0.22h8.3		c0.08-0.02,0.15,0.04,0.17,0.11c0.01,0.03,0,0.07-0.02,0.1c0,0-1.14,6.24-7.81,10.72c-0.1,0.07-0.48,0.27-0.76,0.43		c-0.07,0.08-0.11,0.19-0.11,0.3v3.8c0,0.12,0.08,0.17,0.19,0.1l0.33-0.21c8.39-4.88,10.22-11.47,10.22-11.47l0,0		c0,0,1.85,6.59,10.22,11.47l0.35,0.21c0.1,0.06,0.17,0,0.17-0.1V35.6c0-0.11-0.04-0.21-0.11-0.29c-0.28-0.17-0.64-0.37-0.71-0.44		c-6.66-4.49-7.84-10.67-7.84-10.67c-0.04-0.07-0.01-0.16,0.06-0.2c0.03-0.01,0.06-0.02,0.09-0.02"/>	<path id="パス_752" class="st0" d="M48.35,22.04c0-0.13,0.1-0.23,0.22-0.23h15.38c0.12,0,0.22,0.11,0.22,0.23c0,0,0,0,0,0v2.68		c0,0.12,0.1,0.22,0.22,0.22l0,0h2.57c0.12,0,0.23-0.1,0.23-0.22v-5.44c0-0.12-0.11-0.22-0.23-0.22c0,0,0,0,0,0h-3.1		c-0.13,0-0.16-0.08-0.09-0.17l1.72-1.92l0.24-0.28c0.05-0.06,0.04-0.14-0.02-0.19c-0.03-0.02-0.06-0.03-0.09-0.03h-3.41		c-0.13,0-0.25,0.05-0.34,0.14c-0.05,0.07-1.61,1.95-1.92,2.29c-0.11,0.09-0.24,0.14-0.38,0.15h-1.45c-0.13-0.01-0.25-0.09-0.3-0.21		l-0.88-1.92c-0.06-0.12-0.12-0.26-0.17-0.33c-0.07-0.08-0.17-0.12-0.28-0.12h-3.2c-0.07-0.01-0.13,0.04-0.13,0.11c0,0,0,0,0,0		c0,0.03,0.01,0.06,0.02,0.08l1.14,2.21c0.04,0.06,0.02,0.15-0.04,0.18c0,0,0,0,0,0c-0.03,0.02-0.06,0.02-0.09,0.02h-1.58		c-0.13-0.01-0.25-0.09-0.31-0.21l-1.08-2.22c-0.09-0.14-0.25-0.22-0.42-0.21h-3.3c-0.12,0-0.17,0.12-0.1,0.22l1.37,2.19		c0.04,0.05,0.03,0.13-0.02,0.17c0,0,0,0,0,0c-0.03,0.02-0.06,0.03-0.09,0.02h-3.08c-0.12,0-0.22,0.1-0.22,0.22v5.44		c0,0.12,0.1,0.22,0.22,0.22l0,0h2.56c0.12,0,0.22-0.1,0.22-0.22l0,0L48.35,22.04z"/>	<path id="パス_753" class="st0" d="M58.66,28.61c-0.12,0-0.12-0.08,0-0.13l4.17-2.63l0.27-0.2c0.07-0.08,0.1-0.18,0.1-0.29v-2.19		c0-0.12-0.1-0.22-0.22-0.22l0,0H49.65c-0.12,0-0.22,0.09-0.22,0.21c0,0,0,0,0,0v2.44c0,0.12,0.09,0.23,0.22,0.23c0,0,0,0,0,0h8.28		c0.12,0,0.13,0.04,0,0.09l-2.75,1.17l-0.31,0.13c-0.11,0.05-0.18,0.16-0.17,0.28v0.9c0.01,0.12-0.08,0.22-0.2,0.22h-8.92		c-0.12,0-0.22,0.1-0.22,0.22l0,0v2.67c0,0.12,0.1,0.22,0.22,0.22h8.92c0.12,0,0.22,0.1,0.22,0.22l0,0v3.65		c0,0.21-0.06,0.29-0.24,0.29h-3.08c-0.13,0-0.23,0.1-0.23,0.22V39c0,0.12,0.1,0.21,0.22,0.22h4.05c1.92,0,2.56-1.16,2.56-2.37v-4.9		c0.01-0.12,0.11-0.22,0.23-0.22H67c0.12,0,0.23-0.09,0.23-0.22v-2.68c0-0.12-0.1-0.22-0.22-0.22L58.66,28.61L58.66,28.61z"/>	<path id="パス_754" class="st0" d="M-25.42,1.83c-0.05,0-0.09-0.03-0.09-0.08c0-0.01,0-0.03,0.01-0.04l0.33-0.97		c0-0.06,0-0.11-0.09-0.11h-1.7c-0.07,0-0.14,0.05-0.17,0.11l-0.37,0.97c-0.03,0.06-0.09,0.11-0.16,0.11h-2.76		c-0.07,0-0.12,0.06-0.12,0.12v9.57c0,0.07,0.05,0.12,0.12,0.12l0,0h1.49c0.07,0,0.12-0.05,0.13-0.11c0,0,0,0,0,0V11.2		c0-0.06,0.05-0.12,0.11-0.12c0,0,0,0,0,0c0,0,0.01,0,0.01,0h5.31c0.06,0,0.12,0.05,0.12,0.11v0.33c0,0.07,0.05,0.12,0.12,0.12l0,0		h1.52c0.07,0,0.12-0.05,0.12-0.12c0,0,0,0,0,0V1.95c0-0.06-0.06-0.12-0.12-0.12L-25.42,1.83z M-23.27,9.39c0,0.06,0,0.1-0.1,0.1		h-5.36c-0.05,0.01-0.09-0.02-0.1-0.07c0-0.01,0-0.02,0-0.03V8.43c-0.01-0.05,0.03-0.09,0.07-0.1c0,0,0,0,0,0c0.01,0,0.01,0,0.02,0		h5.36c0.07,0,0.1,0.04,0.1,0.1V9.39z M-23.27,6.83c0,0.07,0,0.11-0.1,0.11h-5.36c-0.06,0-0.1-0.04-0.1-0.11V5.9		c0-0.07,0.03-0.1,0.1-0.1h5.36c0.07,0,0.1,0,0.1,0.1V6.83z M-23.27,4.3c0,0.06,0,0.1-0.1,0.1h-5.36c-0.05,0.01-0.09-0.02-0.1-0.07		c0-0.01,0-0.02,0-0.03V3.44c0-0.07,0.03-0.1,0.1-0.1h5.36c0.07,0,0.1,0,0.1,0.1V4.3z"/>	<path id="パス_755" class="st0" d="M3.32,9.74h-4.24c-0.06,0-0.12-0.05-0.12-0.11V7.89c0-0.06,0.05-0.12,0.11-0.12c0,0,0,0,0,0		c0,0,0.01,0,0.01,0h3.5c0.07,0,0.12-0.06,0.12-0.13V6.32c0-0.06-0.06-0.12-0.12-0.12h-3.5c-0.07,0-0.12-0.05-0.12-0.12c0,0,0,0,0,0		V4.53c0-0.07,0.05-0.12,0.11-0.13c0,0,0,0,0,0h3.9c0.07,0,0.12-0.05,0.12-0.12c0,0,0,0,0,0l0,0V2.86c0-0.07-0.05-0.12-0.11-0.13		c0,0,0,0,0,0h-4.07l0.71-0.69c0.04-0.03,0.05-0.09,0.02-0.13C-0.37,1.91-0.37,1.9-0.38,1.9l-2.65-1.34		c-0.07-0.03-0.14-0.01-0.2,0.03l-1.04,1C-4.3,1.62-4.3,1.67-4.28,1.7c0,0,0,0,0,0c0.01,0.01,0.03,0.02,0.04,0.03l1.96,0.99h-4.68		c-0.07,0-0.12,0.05-0.13,0.11c0,0,0,0,0,0v1.44c0,0.07,0.06,0.12,0.13,0.12h3.9c0.07,0,0.12,0.06,0.12,0.13v1.53		c0,0.06-0.06,0.12-0.12,0.12h-3.51c-0.06,0-0.12,0.06-0.12,0.12v1.35c0,0.07,0.05,0.12,0.11,0.13c0,0,0,0,0,0h3.51		c0.07,0,0.12,0.05,0.12,0.12c0,0,0,0,0,0v1.73c0,0.07-0.05,0.12-0.12,0.12l0,0H-7.3c-0.07,0-0.12,0.05-0.12,0.12c0,0,0,0,0,0v1.42		c0,0.07,0.05,0.12,0.11,0.13c0,0,0,0,0,0H3.32c0.07,0,0.12-0.06,0.12-0.13c0,0,0,0,0,0l0,0V9.87C3.44,9.8,3.38,9.75,3.32,9.74"/>	<path id="パス_756" class="st0" d="M24.36,8.88h1.28c0.07,0,0.12-0.05,0.13-0.12V1.32c0.01-0.07-0.03-0.13-0.1-0.14c0,0,0,0,0,0		c-0.02,0-0.05,0-0.07,0.01h-1.28c-0.06,0-0.12,0.05-0.12,0.11v7.49c0,0.07,0.05,0.12,0.12,0.12l0,0 M27.82,0.71h-1.28		c-0.07,0-0.12,0.06-0.13,0.13v8.69c0,0.19-0.06,0.42-0.39,0.42h-1.63c-0.06,0-0.12,0.05-0.12,0.11v1.46c0,0.07,0.05,0.12,0.12,0.12		l0,0h2.56c0.78,0,1.03-0.64,1.03-1.22V0.83c0.01-0.06-0.04-0.12-0.1-0.13h-0.01 M23.77,2.22c-0.79-0.29-1.48-0.78-2.02-1.42		c-0.06-0.06-0.14-0.09-0.22-0.08h-1.14c-0.06,0-0.12,0.03-0.16,0.08c-0.74,0.78-1.63,1.4-2.62,1.82c-0.07,0.03-0.12,0.1-0.12,0.18		v1.28c0.01,0.08,0.08,0.13,0.15,0.13c0.57-0.25,1.12-0.55,1.63-0.9c0.02,0,0.04,0.02,0.04,0.04c0,0,0,0,0,0v0.35		c0,0.06,0.05,0.12,0.11,0.12c0,0,0,0,0,0c0,0,0.01,0,0.01,0h3.14c0.06,0.01,0.12-0.04,0.13-0.1c0,0,0-0.01,0-0.01V3.2		c0-0.04,0.04,0,0.08,0c0.32,0.19,0.94,0.57,0.94,0.57s0.12,0,0.12-0.08V2.41c0-0.08-0.04-0.14-0.11-0.18 M21.91,2.73h-1.64		c-0.06,0-0.08-0.04,0-0.08l0.76-0.74c0.02-0.02,0.06-0.02,0.08,0c0.04,0.03,0.45,0.42,0.83,0.74v0.07 M23.51,4.19h-5.18		c-0.07,0-0.12,0.06-0.12,0.13v2.5c0,1.28-0.2,2.02-0.8,2.63c-0.04,0.04-0.07,0.1-0.08,0.17v2.1c0,0.1,0.11,0.1,0.17,0.07		c0.79-0.56,1.4-1.34,1.78-2.23v1.92c0,0.06,0.05,0.12,0.11,0.12h4.13c0.06,0,0.12-0.06,0.12-0.12V8.61c0-0.07-0.05-0.12-0.11-0.13		c0,0,0,0,0,0h-3.81c0,0-0.07,0-0.07-0.06V8.09c0-0.06,0-0.07,0.07-0.07h3.81c0.06,0,0.12-0.06,0.12-0.12V4.31		C23.63,4.25,23.58,4.19,23.51,4.19C23.51,4.18,23.51,4.18,23.51,4.19 M20.62,9.52c-0.01-0.05,0.03-0.09,0.07-0.1c0,0,0,0,0,0		c0.01,0,0.02,0,0.03,0h1.32c0.05-0.01,0.09,0.02,0.1,0.07c0,0.01,0,0.02,0,0.03v0.99c0,0.05-0.04,0.1-0.09,0.1h-1.33		c-0.05,0-0.1-0.04-0.1-0.09L20.62,9.52L20.62,9.52z M22.15,6.95c0,0.05-0.04,0.1-0.09,0.1h-2.39c-0.06,0-0.09-0.04-0.09-0.1V6.5		c0-0.06,0-0.1,0.09-0.1h2.37c0.05,0,0.1,0.04,0.1,0.09c0,0,0,0,0,0L22.15,6.95L22.15,6.95z M22.15,5.62c0,0.07-0.04,0.1-0.1,0.1		h-2.37c-0.06,0-0.09,0-0.09-0.1V5.17c0-0.07,0-0.11,0.09-0.11h2.37c0.06,0,0.1,0.04,0.1,0.1c0,0,0,0,0,0V5.62L22.15,5.62z"/>	<path id="パス_757" class="st0" d="M45.84,5.67c-0.06,0-0.12,0.05-0.12,0.11v3.29c0,0.06,0.05,0.12,0.12,0.12l0,0h6.61		c0.07,0,0.12-0.05,0.13-0.11c0,0,0,0,0,0l0,0V5.78c0-0.07-0.05-0.12-0.12-0.12l0,0h-0.01L45.84,5.67z M50.84,7.77		c0.01,0.05-0.03,0.1-0.08,0.11c-0.01,0-0.02,0-0.03,0h-3.21c-0.05,0.01-0.1-0.03-0.11-0.08c0-0.01,0-0.02,0-0.03v-0.7		c0-0.05,0.03-0.1,0.09-0.1c0,0,0,0,0,0c0.01,0,0.01,0,0.02,0h3.21c0.05-0.01,0.1,0.03,0.11,0.08c0,0,0,0,0,0c0,0.01,0,0.01,0,0.02		L50.84,7.77z M44.19,3.93l0.99-0.95L45.14,3.2c-0.01,0.05,0.02,0.11,0.07,0.12c0,0,0,0,0,0c0.01,0,0.02,0,0.03,0h1.51		c0.07-0.01,0.14-0.06,0.15-0.13l0.04-0.4h1.41c0.07,0,0.12,0.06,0.13,0.13v0.6c0,0.07-0.05,0.12-0.12,0.12l0,0h-3.05		c-0.06,0-0.12,0.06-0.12,0.12v1.16c0,0.06,0.06,0.12,0.12,0.12h7.6c0.07,0,0.12-0.05,0.12-0.12c0,0,0,0,0,0l0,0V3.75		c0-0.07-0.05-0.12-0.12-0.12l0,0h-2.57c-0.06,0-0.12-0.05-0.12-0.12V2.92c0-0.07,0.05-0.12,0.11-0.13c0,0,0,0,0,0h2.1		c0.07,0,0.13-0.06,0.13-0.13l0,0V1.38c0-0.07-0.06-0.12-0.13-0.12h-2.1c-0.06,0-0.12-0.05-0.12-0.12V0.74		c-0.01-0.07-0.06-0.12-0.13-0.12h-1.5c-0.07,0-0.12,0.05-0.13,0.11c0,0,0,0,0,0v0.45c0,0.07-0.05,0.12-0.12,0.12l0,0h-1.19		l0.08-0.54c0.01-0.05-0.02-0.1-0.07-0.11c0,0,0,0,0,0c-0.01,0-0.01,0-0.02,0h-1.47c-0.07,0-0.13,0.05-0.14,0.12l-0.32,2.06l0,0		l-1.93-1.49c-0.07-0.03-0.14-0.02-0.2,0.03l-1.03,0.99c-0.04,0.03-0.05,0.09-0.02,0.13c0.01,0.01,0.01,0.01,0.02,0.02l1.92,1.48		c0.06,0.04,0.14,0.04,0.2,0 M52.97,9.81h-6.75c-0.65,0.1-1.26-0.35-1.36-1.01c-0.01-0.09-0.02-0.18-0.01-0.28V4.9		c-0.01-0.07-0.06-0.12-0.13-0.12h-2.42c-0.07,0-0.13,0.05-0.13,0.12c0,0,0,0,0,0l0,0v1.42c0,0.07,0.06,0.12,0.13,0.12h0.79		c0.06,0,0.12,0.05,0.12,0.11v2.4c0.02,0.07-0.01,0.14-0.08,0.18c-0.64,0.31-0.84,0.4-0.9,0.43c-0.05,0.04-0.07,0.1-0.07,0.16v1.85		c0,0.09,0.13,0.1,0.21,0.04s0.69-0.47,1.69-1.14h0.1c0.71,0.62,1.62,0.96,2.56,0.95h6.28c0.06,0,0.12-0.06,0.12-0.12V9.88		c0-0.06-0.05-0.12-0.12-0.12l0,0l0,0"/>	<path id="パス_758" class="st0" d="M-39.14,47.39v3.53c0,0.07,0.02,0.14,0.06,0.2c0.06,0.06,0.13,0.09,0.21,0.11v0.13h-1.71		v-0.13c0.08-0.01,0.15-0.05,0.21-0.11c0.05-0.05,0.07-0.13,0.06-0.2V46c0.01-0.07-0.02-0.14-0.06-0.19		c-0.06-0.06-0.13-0.1-0.21-0.11v-0.14h1.97v0.14c-0.1,0-0.18,0.08-0.18,0.18c0,0.01,0,0.01,0,0.02c0.01,0.09,0.05,0.17,0.12,0.22		l3.21,3.33V46c0-0.07-0.02-0.14-0.06-0.19c-0.06-0.06-0.13-0.1-0.21-0.11v-0.14h1.72v0.14c-0.08,0.01-0.15,0.05-0.21,0.11		c-0.04,0.05-0.07,0.12-0.06,0.19v4.92c0,0.07,0.02,0.14,0.06,0.2c0.06,0.06,0.13,0.09,0.21,0.11v0.13h-1.86v-0.13		c0.09,0.01,0.17-0.06,0.18-0.15c0,0,0,0,0,0c0-0.01,0-0.02,0-0.02c0-0.1-0.06-0.16-0.21-0.3L-39.14,47.39z"/>	<path id="パス_759" class="st0" d="M-32.09,50.92V46c0-0.07-0.02-0.14-0.06-0.19c-0.06-0.06-0.13-0.1-0.21-0.11v-0.14h1.81v0.14		c-0.08,0.01-0.15,0.05-0.21,0.1c-0.05,0.06-0.07,0.13-0.06,0.2v4.92c-0.01,0.07,0.02,0.14,0.06,0.2c0.06,0.06,0.13,0.1,0.21,0.11		v0.13h-1.8v-0.13c0.08-0.01,0.15-0.05,0.21-0.11C-32.1,51.06-32.08,50.99-32.09,50.92z"/>	<path id="パス_760" class="st0" d="M-23.95,48.83h-3.35v2.09c-0.01,0.07,0.02,0.14,0.06,0.2c0.06,0.06,0.13,0.1,0.21,0.11v0.13		h-1.82v-0.13c0.08-0.01,0.15-0.05,0.21-0.11c0.04-0.06,0.06-0.13,0.06-0.2V46c0-0.07-0.02-0.14-0.06-0.19		c-0.06-0.06-0.13-0.1-0.21-0.11v-0.14h1.81v0.14c-0.08,0.01-0.15,0.05-0.21,0.1c-0.05,0.06-0.07,0.13-0.06,0.2v1.87h3.35V46		c0-0.07-0.02-0.14-0.06-0.2c-0.06-0.05-0.13-0.09-0.21-0.1v-0.14h1.81v0.14c-0.08,0.01-0.15,0.05-0.21,0.11		c-0.04,0.05-0.06,0.12-0.06,0.19v4.92c0,0.07,0.02,0.14,0.06,0.2c0.06,0.06,0.13,0.09,0.21,0.11v0.13h-1.81v-0.13		c0.08-0.01,0.16-0.05,0.21-0.11c0.05-0.05,0.07-0.13,0.06-0.2V48.83z"/>	<path id="パス_761" class="st0" d="M-17.53,45.45c0.88-0.05,1.74,0.25,2.41,0.82c1.04,0.98,1.25,2.56,0.49,3.78		c-0.63,0.96-1.74,1.51-2.89,1.41c-0.87,0.05-1.73-0.25-2.39-0.82c-0.32-0.29-0.57-0.65-0.72-1.05c-0.36-0.9-0.27-1.91,0.23-2.73		C-19.77,45.91-18.67,45.37-17.53,45.45z M-17.53,46.44c-0.51-0.02-1,0.16-1.39,0.49c-0.84,0.81-0.87,2.15-0.07,2.99		c0.02,0.02,0.04,0.04,0.07,0.07c0.39,0.33,0.88,0.51,1.39,0.49c0.51,0.02,1.01-0.15,1.39-0.49c0.22-0.2,0.39-0.45,0.5-0.72		c0.1-0.25,0.15-0.51,0.15-0.78c0.04-0.59-0.2-1.16-0.64-1.55C-16.52,46.6-17.02,46.43-17.53,46.44L-17.53,46.44z"/>	<path id="パス_762" class="st0" d="M-11.19,47.39v3.53c0,0.07,0.02,0.14,0.06,0.2c0.06,0.06,0.13,0.09,0.21,0.11v0.13h-1.71		v-0.13c0.08-0.01,0.15-0.05,0.21-0.11c0.04-0.06,0.06-0.13,0.06-0.2V46c0-0.07-0.02-0.14-0.06-0.19c-0.06-0.06-0.13-0.1-0.21-0.11		v-0.14h1.98v0.14c-0.1,0-0.18,0.08-0.19,0.18c0,0,0,0,0,0v0.01c0.01,0.09,0.05,0.17,0.12,0.22l3.21,3.33V46		c0.01-0.07-0.02-0.14-0.06-0.19c-0.06-0.06-0.13-0.1-0.21-0.11v-0.14h1.71v0.14c-0.08,0.01-0.15,0.05-0.21,0.11		c-0.04,0.05-0.06,0.12-0.06,0.19v4.92c0,0.07,0.02,0.14,0.06,0.2c0.06,0.06,0.13,0.09,0.21,0.11v0.13H-7.9v-0.13		c0.09,0.01,0.17-0.06,0.18-0.15c0,0,0,0,0,0c0-0.01,0-0.02,0-0.02c0-0.1-0.07-0.16-0.21-0.3L-11.19,47.39z"/>	<path id="パス_763" class="st0" d="M4.35,46v3.25c0.03,0.49-0.09,0.97-0.34,1.39c-0.41,0.54-1.25,0.82-2.53,0.82		c-0.73,0.04-1.47-0.11-2.12-0.44c-0.27-0.16-0.49-0.41-0.6-0.7c-0.12-0.34-0.17-0.7-0.17-1.06V46c0-0.07-0.02-0.14-0.06-0.2		c-0.06-0.06-0.13-0.1-0.21-0.11v-0.14h1.81v0.14c-0.08,0.01-0.15,0.05-0.21,0.1c-0.05,0.06-0.07,0.13-0.06,0.21v2.9		c-0.01,0.25,0.01,0.5,0.06,0.74c0.03,0.15,0.1,0.29,0.21,0.4c0.85,0.57,1.95,0.57,2.8,0c0.1-0.11,0.17-0.25,0.2-0.4		c0.05-0.25,0.07-0.49,0.06-0.74V46c0-0.07-0.02-0.14-0.06-0.2c-0.06-0.06-0.13-0.1-0.21-0.11v-0.14h1.71v0.14		c-0.08,0.02-0.16,0.05-0.22,0.11C4.37,45.86,4.35,45.93,4.35,46z"/>	<path id="パス_764" class="st0" d="M7.65,47.39v3.53c0,0.07,0.02,0.14,0.06,0.2c0.06,0.06,0.13,0.09,0.21,0.11v0.13H6.22v-0.13		c0.08-0.01,0.15-0.05,0.21-0.11c0.04-0.06,0.07-0.13,0.06-0.2V46c0-0.07-0.02-0.14-0.06-0.19c-0.06-0.06-0.13-0.1-0.21-0.11v-0.14		h1.97v0.14c-0.1,0-0.18,0.08-0.19,0.18c0,0,0,0,0,0v0.01c0.01,0.09,0.05,0.17,0.12,0.22l3.21,3.33V46c0-0.07-0.02-0.14-0.06-0.19		c-0.06-0.06-0.14-0.09-0.22-0.11v-0.14h1.72v0.14c-0.08,0.02-0.16,0.05-0.22,0.11c-0.04,0.05-0.06,0.12-0.06,0.19v4.92		c0,0.07,0.02,0.14,0.06,0.2c0.06,0.05,0.14,0.09,0.22,0.11v0.13h-1.84v-0.13c0.09,0.01,0.17-0.06,0.18-0.15c0,0,0,0,0,0		c0-0.01,0-0.02,0-0.02c0-0.1-0.07-0.16-0.21-0.3L7.65,47.39z"/>	<path id="パス_765" class="st0" d="M14.7,50.92V46c0-0.07-0.02-0.14-0.06-0.19c-0.06-0.06-0.14-0.09-0.22-0.11v-0.14h1.81v0.14		c-0.08,0.01-0.15,0.05-0.21,0.1c-0.04,0.06-0.06,0.13-0.06,0.2v4.92c0,0.07,0.02,0.14,0.06,0.2c0.06,0.06,0.13,0.09,0.21,0.11v0.13		h-1.81v-0.13c0.08-0.02,0.16-0.05,0.22-0.11C14.69,51.06,14.71,50.99,14.7,50.92z"/>	<path id="パス_766" class="st0" d="M20.8,49.68l1.54-3.41c0.05-0.1,0.09-0.22,0.1-0.33c0-0.12-0.09-0.21-0.28-0.24v-0.14h1.99		v0.14c-0.1,0-0.19,0.04-0.26,0.1c-0.1,0.15-0.19,0.3-0.25,0.47l-2.01,4.35c-0.06,0.11-0.11,0.23-0.13,0.36		c0,0.14,0.09,0.23,0.27,0.26v0.13h-2.01v-0.13c0.13,0.02,0.25-0.08,0.27-0.21c0,0,0,0,0,0c0-0.01,0-0.03,0-0.04		c-0.02-0.13-0.07-0.25-0.13-0.36l-2-4.35c-0.07-0.16-0.15-0.32-0.25-0.47c-0.07-0.06-0.17-0.1-0.26-0.1v-0.14h2.06v0.14		c-0.14-0.02-0.26,0.08-0.28,0.21c0,0,0,0,0,0v0.02c0.01,0.12,0.05,0.23,0.1,0.33L20.8,49.68z"/>	<path id="パス_767" class="st0" d="M26.83,48.82v1.59h3.73c0.07,0,0.14-0.02,0.2-0.06c0.06-0.06,0.09-0.13,0.11-0.21h0.13v1.5		h-0.13c-0.01-0.08-0.05-0.15-0.11-0.21c-0.06-0.05-0.13-0.07-0.2-0.06h-5.28v-0.13c0.08-0.01,0.15-0.05,0.21-0.11		c0.04-0.06,0.07-0.13,0.06-0.2V46c0-0.07-0.02-0.14-0.06-0.2c-0.06-0.06-0.13-0.1-0.21-0.11v-0.14h5.17c0.07,0,0.14-0.02,0.2-0.06		c0.06-0.06,0.09-0.13,0.11-0.21h0.13v1.5h-0.13c-0.01-0.08-0.05-0.15-0.11-0.21c-0.06-0.04-0.13-0.07-0.2-0.06h-3.63v1.38h2.36		c0.07,0.01,0.14-0.02,0.2-0.06c0.06-0.06,0.09-0.13,0.11-0.21h0.13v1.47h-0.13c-0.02-0.08-0.05-0.15-0.11-0.21		c-0.06-0.04-0.13-0.06-0.2-0.06L26.83,48.82z"/>	<path id="パス_768" class="st0" d="M34.1,49v1.92c-0.01,0.07,0.02,0.14,0.06,0.2c0.06,0.06,0.13,0.1,0.21,0.11v0.13h-1.81v-0.13		c0.08-0.01,0.15-0.05,0.21-0.11c0.04-0.06,0.06-0.13,0.06-0.2V46c0-0.07-0.02-0.14-0.06-0.2c-0.06-0.06-0.13-0.1-0.21-0.11v-0.14		h3.63c0.35-0.01,0.7,0.02,1.05,0.08c0.24,0.04,0.47,0.14,0.68,0.27c0.22,0.15,0.4,0.36,0.5,0.6c0.11,0.25,0.16,0.51,0.16,0.78		c0,0.95-0.53,1.5-1.58,1.66l1.13,1.6c0.13,0.19,0.27,0.37,0.43,0.54c0.09,0.08,0.21,0.13,0.34,0.13v0.13h-2.1v-0.13		c0.14,0,0.22-0.07,0.22-0.15c-0.04-0.13-0.11-0.26-0.21-0.37l-1.17-1.71L34.1,49z M34.1,48.03h1.95c0.21,0.01,0.43,0.01,0.64,0		c0.11-0.01,0.23-0.05,0.33-0.1c0.35-0.24,0.45-0.72,0.2-1.08c0,0,0,0,0,0c-0.05-0.08-0.12-0.15-0.2-0.2		c-0.1-0.06-0.21-0.09-0.33-0.11h-2.6L34.1,48.03z"/>	<path id="パス_769" class="st0" d="M45.66,46.06l-0.69,1.37l-0.13-0.08v-0.07c-0.05-0.13-0.14-0.23-0.25-0.31		c-0.52-0.36-1.14-0.55-1.78-0.53c-0.27-0.01-0.54,0.03-0.8,0.12c-0.16,0.04-0.3,0.13-0.41,0.25c-0.1,0.1-0.15,0.23-0.15,0.37		c0,0.22,0.13,0.37,0.4,0.45c0.29,0.06,0.58,0.11,0.87,0.13l0.67,0.06c0.33,0.03,0.65,0.09,0.96,0.17c0.23,0.07,0.44,0.18,0.64,0.31		c0.19,0.14,0.35,0.33,0.46,0.54c0.11,0.23,0.17,0.48,0.17,0.73c0,0.4-0.13,0.78-0.39,1.09c-0.3,0.32-0.69,0.55-1.12,0.64		c-0.39,0.11-0.79,0.16-1.2,0.15c-0.79,0-1.57-0.19-2.28-0.55c-0.09-0.05-0.18-0.08-0.28-0.11c-0.06,0.01-0.12,0.04-0.17,0.09		l-0.13-0.06l0.64-1.43l0.12,0.06v0.06c0,0.14,0.07,0.27,0.19,0.35c0.25,0.2,0.54,0.35,0.85,0.43c0.36,0.11,0.72,0.17,1.1,0.17		c0.33,0.01,0.66-0.06,0.97-0.19c0.14-0.07,0.26-0.16,0.35-0.29c0.09-0.1,0.13-0.23,0.13-0.37c0-0.19-0.13-0.36-0.31-0.41		c-0.29-0.09-0.58-0.14-0.88-0.16l-0.64-0.06c-0.43-0.04-0.75-0.09-0.93-0.13c-0.19-0.05-0.37-0.11-0.54-0.2		c-0.27-0.12-0.49-0.32-0.64-0.58c-0.14-0.24-0.21-0.52-0.2-0.8c-0.01-0.46,0.17-0.9,0.51-1.22c0.55-0.46,1.27-0.69,1.99-0.64		c0.35,0,0.7,0.04,1.04,0.12c0.41,0.11,0.82,0.24,1.2,0.42c0.1,0.04,0.2,0.08,0.3,0.1c0.08-0.01,0.15-0.04,0.21-0.1L45.66,46.06z"/>	<path id="パス_770" class="st0" d="M47.44,50.92V46c0-0.07-0.02-0.14-0.06-0.19c-0.06-0.06-0.13-0.09-0.21-0.11v-0.14h1.81v0.14		c-0.08,0.01-0.15,0.05-0.21,0.1c-0.04,0.06-0.06,0.13-0.06,0.2v4.92c0,0.07,0.02,0.14,0.06,0.2c0.06,0.06,0.13,0.09,0.21,0.11v0.13		h-1.81v-0.13c0.08-0.02,0.15-0.05,0.21-0.11C47.43,51.06,47.45,50.99,47.44,50.92z"/>	<path id="パス_771" class="st0" d="M53.72,46.52v4.4c0,0.07,0.02,0.14,0.06,0.2c0.06,0.06,0.13,0.09,0.21,0.11v0.13h-1.81v-0.13		c0.08-0.01,0.15-0.05,0.21-0.11c0.05-0.05,0.07-0.13,0.06-0.2v-4.41h-1.81c-0.07,0-0.14,0.02-0.19,0.06		c-0.06,0.06-0.1,0.13-0.12,0.21h-0.13v-1.5h0.13c0.02,0.08,0.06,0.15,0.12,0.21c0.05,0.04,0.12,0.06,0.19,0.06h4.87		c0.07,0,0.15-0.02,0.21-0.06c0.05-0.06,0.09-0.13,0.11-0.21h0.13v1.5h-0.13c-0.02-0.08-0.05-0.15-0.11-0.21		c-0.06-0.04-0.13-0.07-0.21-0.06L53.72,46.52z"/>	<path id="パス_772" class="st0" d="M60.41,48.93v1.99c0,0.07,0.02,0.14,0.06,0.2c0.06,0.05,0.13,0.09,0.21,0.11v0.13h-1.82v-0.13		c0.08-0.01,0.16-0.05,0.22-0.11c0.05-0.05,0.07-0.13,0.06-0.2v-1.99l-1.88-2.64c-0.11-0.16-0.24-0.32-0.38-0.46		c-0.09-0.08-0.21-0.13-0.33-0.14v-0.14h2.29v0.14c-0.14-0.02-0.26,0.08-0.28,0.22c0,0,0,0,0,0c0,0.01,0,0.03,0,0.04		c0.03,0.12,0.09,0.23,0.17,0.33l1.04,1.56l1.07-1.56c0.08-0.1,0.15-0.21,0.18-0.34c0-0.06-0.03-0.13-0.08-0.17		c-0.06-0.05-0.13-0.08-0.21-0.09v-0.14h2.24v0.14c-0.12,0.01-0.24,0.06-0.33,0.14c-0.14,0.14-0.27,0.29-0.38,0.46L60.41,48.93z"/></g><g id="グループ_23">	<path id="パス_773" class="st1" d="M32.68,7.07c0.41,0,0.41,0.33,0.41,0.33v3.3c0,1.06,0.86,1.92,1.92,1.92l0,0l0,0		c1.06,0,1.92-0.86,1.92-1.92v0V7.41c0-0.17,0.13-0.3,0.29-0.31c0,0,0,0,0,0h4.28c0.22,0,0.4,0.17,0.43,0.38v2.72		c0,1.06,0.86,1.92,1.92,1.92l0,0l0,0c1.06,0,1.92-0.86,1.92-1.92v0l0,0V5.47c0-1.06-0.86-1.92-1.92-1.92l0,0H32.59		c-0.12,0.02-0.22-0.06-0.24-0.18c0,0,0,0,0,0c0-0.01,0-0.03,0-0.04C32.17,2.22,31.12,1.46,30,1.64c0,0,0,0-0.01,0		c-0.87,0.14-1.55,0.82-1.69,1.69c0,0.16-0.05,0.22-0.29,0.22H16.86c-1.06,0-1.92,0.86-1.92,1.92v0v4.73c0,1.06,0.86,1.92,1.92,1.92		l0,0l0,0c1.06,0,1.92-0.86,1.92-1.92v0V7.48C18.81,7.26,19,7.1,19.22,7.1h4.27c0.17,0,0.3,0.13,0.31,0.29c0,0,0,0,0,0v3.31		c0,1.06,0.86,1.92,1.92,1.92l0,0l0,0c1.06,0,1.92-0.86,1.92-1.92v0V7.41c0,0,0-0.33,0.41-0.33L32.68,7.07z"/>	<path id="パス_774" class="st1" d="M42.06,14.56c0.32-0.65,0.98-1.07,1.71-1.07l0,0c1.06,0,1.92,0.86,1.92,1.92v0l0,0v7.81		c0,1.06-0.86,1.92-1.92,1.92l0,0h-5.41c-0.71,0-1.28-0.57-1.28-1.28l0,0c0-0.71,0.57-1.28,1.28-1.28h3.27		c0.12,0,0.21-0.1,0.21-0.22v-0.98c0-0.12-0.09-0.21-0.21-0.22h-3.27c-0.71,0-1.28-0.57-1.28-1.28l0,0l0,0		c0-0.71,0.57-1.28,1.28-1.28h3.27c0.12,0,0.21-0.1,0.21-0.21c0,0,0,0,0,0v-0.95c0-0.12-0.09-0.21-0.21-0.22h-3.27		c-0.71,0-1.28-0.57-1.28-1.28l0,0l0,0c0-0.71,0.57-1.28,1.28-1.28h3.49C41.93,14.67,42.01,14.63,42.06,14.56z"/>	<path id="パス_775" class="st1" d="M18.6,14.56c-0.32-0.65-0.98-1.07-1.71-1.07l0,0c-1.06,0-1.92,0.86-1.92,1.92v0v7.81		c0,1.06,0.86,1.92,1.92,1.92l0,0h5.38c0.71,0,1.28-0.57,1.28-1.28l0,0c0-0.71-0.57-1.28-1.28-1.28H19c-0.12,0-0.21-0.1-0.21-0.22		v-0.98c0-0.12,0.09-0.21,0.21-0.22h3.27c0.71,0,1.28-0.57,1.28-1.28l0,0c0-0.71-0.57-1.28-1.28-1.28H19		c-0.12,0-0.21-0.09-0.21-0.21c0,0,0,0,0,0v-0.96c-0.01-0.12,0.07-0.23,0.19-0.24H19h3.27c0.71,0,1.28-0.57,1.28-1.28l0,0		c0-0.71-0.57-1.28-1.28-1.28h-3.49C18.71,14.64,18.65,14.61,18.6,14.56z"/>	<path id="パス_776" class="st1" d="M34.16,17.45l-0.78-0.33c-0.04,0-0.08-0.03-0.08-0.08c0,0,0,0,0,0v0		c0-0.05,0.03-0.08,0.08-0.1l0.78-0.33c0.56-0.26,0.81-0.92,0.56-1.48c-0.25-0.54-0.87-0.8-1.43-0.58l-2.75,1.17		c-0.07,0.03-0.15,0.04-0.22,0.04c-0.07,0-0.14-0.02-0.21-0.04l-2.75-1.17c-0.56-0.25-1.22-0.01-1.48,0.56		c-0.25,0.56-0.01,1.22,0.56,1.48l0.05,0.02l0.78,0.33c0.05,0.01,0.08,0.05,0.07,0.1c-0.01,0.04-0.03,0.06-0.07,0.07l-0.78,0.33		c-0.57,0.23-0.86,0.88-0.63,1.45c0.23,0.57,0.87,0.86,1.45,0.63c0,0,0,0,0,0l0.05-0.02l2.67-1.13c0.1-0.05,0.21-0.07,0.31-0.08		c0.11,0.01,0.22,0.03,0.32,0.08l2.65,1.13c0.57,0.24,1.22-0.02,1.46-0.59c0,0,0,0,0,0c0.24-0.57-0.02-1.22-0.59-1.47c0,0,0,0,0,0		L34.16,17.45L34.16,17.45z"/>	<path id="パス_777" class="st1" d="M34.16,23.36l-0.78-0.33c-0.04,0-0.08-0.03-0.08-0.08c0,0,0,0,0,0v0		c0-0.05,0.03-0.09,0.08-0.09l0.78-0.33c0.58-0.21,0.87-0.85,0.66-1.43c-0.21-0.58-0.86-0.87-1.43-0.66		c-0.03,0.01-0.06,0.03-0.09,0.04l-2.75,1.17c-0.07,0.03-0.15,0.04-0.22,0.04c-0.07,0-0.14-0.02-0.21-0.04l-2.75-1.17		c-0.56-0.27-1.22-0.03-1.49,0.52c-0.27,0.55-0.03,1.22,0.52,1.49c0,0,0,0,0,0c0.03,0.02,0.06,0.03,0.09,0.04l0.78,0.33		c0.04,0,0.07,0.03,0.07,0.07c0,0,0,0.01,0,0.01c0,0.04-0.03,0.08-0.07,0.09l-0.78,0.33c-0.58,0.21-0.87,0.86-0.66,1.43c0,0,0,0,0,0		c0.21,0.58,0.86,0.87,1.43,0.66c0,0,0,0,0,0c0.03-0.01,0.06-0.03,0.09-0.04l2.67-1.12c0.1-0.05,0.21-0.07,0.31-0.08		c0.11,0.01,0.22,0.03,0.32,0.08l2.65,1.12c0.55,0.27,1.22,0.03,1.49-0.52c0,0,0,0,0,0c0.27-0.55,0.03-1.22-0.52-1.49c0,0,0,0,0,0		c-0.03-0.02-0.06-0.03-0.09-0.04L34.16,23.36z"/>	<path id="パス_778" class="st1" d="M18.34,28.45c-0.19,0-0.36,0.15-0.36,0.34v5.4c0,0.82-0.67,1.49-1.49,1.49l0,0l0,0		c-0.82,0-1.49-0.67-1.49-1.49l0,0l0,0v-6.64c0-0.82,0.66-1.5,1.49-1.5h0h27.7c0.82,0,1.49,0.67,1.49,1.49l0,0v6.65		c0,0.82-0.67,1.49-1.49,1.49l0,0l0,0c-0.82,0-1.49-0.67-1.49-1.49l0,0l0,0v-5.39c0-0.19-0.16-0.35-0.35-0.35H18.34z"/>	<path id="パス_779" class="st1" d="M33.71,30.72L33.71,30.72c0.14,0,0.26,0.11,0.26,0.26v0v0.49c0,0.14-0.11,0.25-0.25,0.25		h-6.95c-0.14,0-0.25-0.1-0.26-0.24v-0.5c0-0.14,0.11-0.26,0.26-0.26l0,0L33.71,30.72z M32.63,36.79c0-0.2,0.16-0.36,0.36-0.36h6.83		c0.68,0,1.24-0.55,1.24-1.24v-4.11c0-0.68-0.55-1.24-1.24-1.24c0,0,0,0,0,0c-0.68,0-1.24,0.55-1.24,1.24v2.78		c0,0.14-0.12,0.25-0.26,0.26h-5.37c-0.21,0-0.37-0.16-0.38-0.36c0,0,0,0,0,0v-0.14c0-0.21,0.17-0.37,0.37-0.37l0,0h2.7		c0.73,0.01,1.33-0.57,1.35-1.3v-1.35c0-0.74-0.6-1.33-1.34-1.33H24.83c-0.74-0.01-1.34,0.58-1.35,1.31v1.37		c0.03,0.72,0.63,1.29,1.35,1.28h3.68c0.21,0,0.37,0.17,0.38,0.37v0.13c0,0.21-0.17,0.38-0.38,0.38c0,0,0,0,0,0h-6.35		c-0.14,0-0.26-0.11-0.26-0.26v-2.76c0-0.68-0.55-1.24-1.24-1.24c0,0,0,0,0,0c-0.68,0-1.24,0.55-1.24,1.24v4.11		c0,0.68,0.55,1.24,1.24,1.24h7.85c0.2,0,0.36,0.16,0.36,0.36v0.12c0,0.2-0.16,0.36-0.36,0.36h-1.69c-0.67,0-1.21,0.54-1.21,1.21		v0.01l0,0c0,0.67,0.54,1.2,1.21,1.2h4.6c0.67,0,1.21-0.54,1.21-1.21l0,0L32.63,36.79z"/>	<path id="パス_780" class="st1" d="M49.61,32.97c0,0,1.35-1.46,1.77-1.85c0.34-0.33,0.7-0.64,1.08-0.93		c0.14-0.11,0.33-0.11,0.47,0c0.63,0.6,1.15,1.3,1.54,2.07c0.37,0.84,0.59,1.74,0.64,2.66c0,0.13-0.45,0.28-0.45,0.28		s0.21-0.43-0.33-2.21c-0.33-0.87-0.84-1.66-1.5-2.32c-0.07-0.09-0.21-0.11-0.3-0.04c0,0,0,0,0,0h0c-0.44,0.34-0.86,0.72-1.24,1.12		l-1.31,1.42L49.61,32.97z"/>	<path id="パス_781" class="st1" d="M48.29,35.18c0,0,0,0.06,0.04,0.04c0.48-0.15,0.89-0.46,1.16-0.88		c0.09-0.14,0.19-0.06,0.14,0.06c-0.28,0.53-0.77,0.93-1.35,1.11c-0.03,0.01-0.05,0.04-0.06,0.07		C48.16,35.79,48.29,35.18,48.29,35.18z"/>	<path id="パス_782" class="st1" d="M30.67,42.2c0,0.18-0.14,0.32-0.32,0.32c0,0,0,0,0,0l0,0c-0.18,0.04-0.35-0.08-0.38-0.26		c0,0,0,0,0,0c-0.03-0.18,0.08-0.35,0.26-0.38c0.04-0.01,0.08-0.01,0.13,0C30.52,41.87,30.67,42.02,30.67,42.2		C30.67,42.19,30.67,42.2,30.67,42.2L30.67,42.2z"/>	<path id="パス_783" class="st1" d="M24.46,46.2c0.17,0.05,0.26,0.23,0.21,0.39c0,0,0,0,0,0l0,0.01		c-0.05,0.18-0.24,0.28-0.42,0.22c0,0,0,0,0,0c-0.18-0.05-0.28-0.24-0.22-0.42c0,0,0,0,0,0c0.05-0.17,0.23-0.27,0.4-0.22		C24.44,46.18,24.45,46.19,24.46,46.2L24.46,46.2z"/>	<path id="パス_784" class="st1" d="M26.4,53.28c0.1-0.14,0.3-0.18,0.45-0.08l0,0c0.15,0.1,0.18,0.3,0.08,0.45c0,0,0,0,0,0		c-0.1,0.15-0.3,0.18-0.45,0.08c0,0,0,0,0,0C26.33,53.63,26.29,53.43,26.4,53.28C26.39,53.28,26.39,53.28,26.4,53.28L26.4,53.28z"/>	<path id="パス_785" class="st1" d="M33.7,53.65c-0.11-0.15-0.07-0.35,0.07-0.46c0.15-0.1,0.35-0.07,0.46,0.07		c0.09,0.15,0.05,0.35-0.11,0.45C33.98,53.8,33.81,53.77,33.7,53.65L33.7,53.65z"/>	<path id="パス_786" class="st1" d="M36.33,46.82c-0.17,0.06-0.35-0.04-0.4-0.2l0,0c-0.05-0.17,0.04-0.35,0.21-0.41		c0.17-0.05,0.35,0.04,0.41,0.21C36.6,46.58,36.51,46.76,36.33,46.82C36.34,46.82,36.34,46.82,36.33,46.82L36.33,46.82L36.33,46.82z		"/>	<path id="パス_787" class="st1" d="M34.19,46.16c-0.17,0.05-0.35-0.04-0.4-0.21c-0.05-0.17,0.04-0.35,0.21-0.4		c0.17-0.05,0.35,0.04,0.4,0.21l0,0C34.45,45.92,34.36,46.1,34.19,46.16z"/>	<path id="パス_788" class="st1" d="M33.1,45.04c-0.17,0.06-0.36-0.04-0.41-0.21c0,0,0,0,0,0c-0.05-0.17,0.04-0.35,0.2-0.4l0,0		c0.18-0.06,0.36,0.04,0.42,0.22c0.06,0.18-0.04,0.37-0.22,0.42L33.1,45.04z"/>	<path id="パス_789" class="st1" d="M31.68,44.36c-0.18,0.06-0.37-0.04-0.42-0.22c0,0,0,0,0,0c-0.06-0.18,0.04-0.37,0.22-0.42		c0,0,0,0,0,0c0.17-0.06,0.35,0.03,0.41,0.2v0.01c0.07,0.16,0,0.34-0.16,0.42C31.71,44.34,31.69,44.35,31.68,44.36L31.68,44.36z"/>	<path id="パス_790" class="st1" d="M35.67,46.68c0-0.09-0.14-0.1-0.14-0.1c-0.04-0.01-0.08-0.01-0.12,0l-4.25,1.39		c-0.04,0.01-0.08,0.01-0.12,0l-0.47-0.35c-0.03-0.02-0.06-0.06-0.06-0.1v-4.49c0.01-0.04,0.01-0.08,0-0.12c0,0-0.05-0.11-0.14-0.11		s-0.14,0.11-0.14,0.11c-0.01,0.04-0.01,0.08,0,0.12v4.49c0,0.04-0.02,0.08-0.06,0.1l-0.49,0.36c-0.04,0.01-0.08,0.01-0.12,0		l-4.28-1.38h-0.12c0,0-0.12,0-0.14,0.1c-0.01,0.06,0.01,0.13,0.06,0.17l0.11,0.06l4.21,1.4h0.06v0.06l0.18,0.56		c0.02,0.03,0.02,0.08,0,0.11l-2.61,3.63c-0.02,0.04-0.04,0.07-0.05,0.12c0,0.06,0.02,0.12,0.05,0.17c0.05,0.05,0.18,0,0.18,0		c0.04-0.02,0.07-0.05,0.09-0.08l2.63-3.59c0.02-0.04,0.06-0.07,0.1-0.08h0.64c0.04,0,0.08,0.02,0.1,0.06l2.62,3.56		c0.02,0.03,0.05,0.06,0.09,0.08c0,0,0.11,0.06,0.18,0c0.05-0.04,0.07-0.11,0.05-0.17c-0.01-0.04-0.03-0.08-0.05-0.12l-2.56-3.59		c-0.02-0.04-0.02-0.08,0-0.12l0.19-0.6c0.02-0.04,0.05-0.06,0.08-0.08l4.2-1.39c0.04-0.02,0.08-0.04,0.11-0.06		C35.7,46.78,35.7,46.73,35.67,46.68z M30.28,47.86c0.03-0.02,0.07-0.02,0.1,0l0.48,0.35c0.03,0.02,0.05,0.06,0.03,0.1l-0.18,0.56		c-0.01,0.03-0.05,0.06-0.08,0.06h-0.6c-0.04,0-0.07-0.02-0.08-0.06l-0.19-0.56c-0.02-0.03-0.02-0.07,0-0.1L30.28,47.86z"/>	<path id="パス_791" class="st1" d="M30.97,46.68c-0.02,0.06-0.08,0.1-0.14,0.08l0,0c-0.06-0.02-0.1-0.08-0.08-0.14l0.38-1.28		c0.01-0.05,0.07-0.09,0.12-0.08c0,0,0,0,0,0h0.01l0,0c0.05,0.03,0.07,0.08,0.05,0.13L30.97,46.68z"/>	<path id="パス_792" class="st1" d="M31.54,46.97c-0.04,0.05-0.12,0.05-0.16,0l0,0l0,0c-0.04-0.05-0.04-0.12,0-0.17l0.77-1.08		c0.04-0.04,0.11-0.04,0.15,0l0,0c0.04,0.04,0.04,0.1,0.01,0.14c0,0,0,0,0,0l-0.01,0.01L31.54,46.97z"/>	<path id="パス_793" class="st1" d="M31.95,47.47c-0.05,0.04-0.12,0.04-0.17,0l0,0c-0.05-0.04-0.05-0.12,0-0.16c0,0,0,0,0,0l0,0		l1.11-0.74c0.04-0.04,0.11-0.04,0.15,0l0,0c0.03,0.05,0.02,0.11-0.03,0.14c0,0,0,0,0,0h0L31.95,47.47z"/>	<path id="パス_794" class="st1" d="M29.33,44.05c0,0.18-0.14,0.32-0.32,0.32c0,0,0,0,0,0l0,0c-0.18,0.04-0.35-0.08-0.38-0.26		c0,0,0,0,0,0c-0.03-0.18,0.08-0.35,0.26-0.38c0.04-0.01,0.08-0.01,0.13,0C29.19,43.73,29.33,43.87,29.33,44.05		C29.33,44.05,29.33,44.05,29.33,44.05L29.33,44.05z"/>	<path id="パス_795" class="st1" d="M27.94,44.76c-0.04,0.18-0.21,0.29-0.38,0.26c0,0,0,0,0,0c-0.18-0.04-0.29-0.21-0.26-0.38		c0,0,0,0,0,0c0.04-0.18,0.21-0.29,0.38-0.26c0,0,0,0,0,0c0.04,0.01,0.08,0.02,0.12,0.05C27.91,44.5,27.96,44.63,27.94,44.76z"/>	<path id="パス_796" class="st1" d="M26.85,45.88c0,0.18-0.15,0.32-0.33,0.32c0,0,0,0,0,0c-0.18,0-0.32-0.15-0.32-0.33		c0-0.18,0.15-0.32,0.33-0.32c0.04,0,0.08,0.01,0.12,0.03C26.78,45.63,26.86,45.75,26.85,45.88z"/>	<path id="パス_797" class="st1" d="M28.81,47.26c0.04,0.05,0.04,0.12,0,0.17l0,0c-0.04,0.05-0.12,0.05-0.16,0l0,0l-1.07-0.74		c-0.04-0.04-0.04-0.1,0-0.14l0,0c0.04-0.04,0.1-0.04,0.14,0L28.81,47.26z"/>	<path id="パス_798" class="st1" d="M29.29,46.82c0.04,0.05,0.04,0.12,0,0.17l0,0c-0.04,0.05-0.12,0.05-0.16,0l0,0l-0.8-1.07		c-0.04-0.04-0.04-0.11,0-0.15c0,0,0,0,0,0l0,0c0.04-0.04,0.11-0.04,0.15,0L29.29,46.82z"/>	<path id="パス_799" class="st1" d="M29.89,46.57c0.02,0.07-0.02,0.13-0.08,0.15l0,0c-0.06,0.01-0.12-0.02-0.14-0.08l-0.37-1.28		c-0.02-0.06,0.02-0.12,0.08-0.13l0,0c0.05-0.02,0.11,0.01,0.13,0.06v0.01L29.89,46.57z"/>	<path id="パス_800" class="st1" d="M25.87,48.02c0.18,0.05,0.28,0.24,0.22,0.42c0,0,0,0,0,0c-0.05,0.18-0.24,0.28-0.42,0.22		c0,0,0,0,0,0c-0.17-0.05-0.26-0.23-0.21-0.4c0,0,0,0,0,0v-0.01c0.04-0.17,0.2-0.28,0.37-0.24c0,0,0,0,0,0L25.87,48.02L25.87,48.02z		"/>	<path id="パス_801" class="st1" d="M26.1,49.56c0.18,0.06,0.27,0.25,0.22,0.42c-0.06,0.18-0.24,0.27-0.42,0.22c0,0,0,0,0,0		c-0.18-0.06-0.27-0.25-0.22-0.42l0,0C25.73,49.6,25.92,49.5,26.1,49.56z"/>	<path id="パス_802" class="st1" d="M26.82,50.95c0.17,0.05,0.26,0.23,0.21,0.4c0,0,0,0,0,0v0.01c-0.05,0.17-0.23,0.26-0.39,0.21		l-0.01,0c-0.18-0.05-0.28-0.24-0.22-0.42c0,0,0,0,0,0c0.05-0.18,0.24-0.28,0.42-0.22c0,0,0,0,0,0l0,0L26.82,50.95z"/>	<path id="パス_803" class="st1" d="M28.74,49.51c0.04-0.05,0.12-0.05,0.16,0l0,0l0,0c0.05,0.04,0.05,0.12,0,0.16l0,0l-1.06,0.85		c-0.04,0.04-0.11,0.04-0.15,0l0,0c-0.04-0.04-0.04-0.11,0-0.15c0,0,0,0,0,0L28.74,49.51z"/>	<path id="パス_804" class="st1" d="M28.49,48.91c0.06-0.02,0.13,0.01,0.15,0.07c0,0,0,0,0,0l0,0c0.02,0.06-0.01,0.13-0.08,0.14		c0,0,0,0,0,0l0,0l-1.28,0.42c-0.06,0.02-0.12,0-0.14-0.06c0,0,0,0,0,0v0l0,0c-0.02-0.06,0.01-0.12,0.07-0.14L28.49,48.91z"/>	<path id="パス_805" class="st1" d="M28.44,48.27c0.07,0,0.12,0.06,0.12,0.13c0,0,0,0,0,0l0,0c0,0.06-0.05,0.11-0.11,0.11		c0,0,0,0,0,0h-0.01l-1.33-0.04c-0.06,0-0.1-0.05-0.1-0.1v-0.01l0,0c0-0.06,0.04-0.1,0.1-0.11h0.01L28.44,48.27z"/>	<path id="パス_806" class="st1" d="M28.54,52.55c0.11-0.14,0.31-0.17,0.45-0.07c0,0,0,0,0,0c0.14,0.11,0.17,0.31,0.07,0.45		c0,0,0,0,0,0c-0.1,0.14-0.3,0.17-0.45,0.07C28.47,52.9,28.44,52.7,28.54,52.55z"/>	<path id="パス_807" class="st1" d="M30.08,52.82c0.1-0.14,0.3-0.18,0.45-0.08c0,0,0,0,0,0l0.01,0.01		c0.14,0.11,0.17,0.3,0.07,0.45c-0.11,0.14-0.31,0.17-0.46,0.07C30.01,53.16,29.98,52.96,30.08,52.82z"/>	<path id="パス_808" class="st1" d="M31.63,52.54c0.1-0.14,0.3-0.17,0.45-0.07c0,0,0,0,0,0c0.14,0.1,0.18,0.3,0.07,0.45		c0,0,0,0,0,0c-0.11,0.14-0.3,0.17-0.45,0.07c-0.14-0.1-0.18-0.29-0.08-0.44c0,0,0,0,0,0L31.63,52.54L31.63,52.54z"/>	<path id="パス_809" class="st1" d="M30.85,50.26c-0.02-0.06,0.01-0.13,0.07-0.15l0,0c0.06-0.02,0.13,0.01,0.15,0.07l0.44,1.28		c0.02,0.05-0.01,0.11-0.06,0.13h0l0,0c-0.05,0.02-0.11-0.01-0.13-0.06c0,0,0,0,0,0v0L30.85,50.26z"/>	<path id="パス_810" class="st1" d="M30.21,50.33c0-0.06,0.05-0.12,0.12-0.12l0,0c0.06,0,0.12,0.05,0.12,0.11v1.34		c0,0.06-0.05,0.11-0.11,0.11l0,0l0,0c-0.06,0-0.11-0.05-0.11-0.11c0,0,0,0,0,0l0,0L30.21,50.33z"/>	<path id="パス_811" class="st1" d="M29.58,50.18c0.02-0.06,0.08-0.09,0.15-0.08h0.01l0,0c0.06,0.02,0.09,0.09,0.07,0.15		l-0.47,1.28c-0.02,0.05-0.08,0.08-0.13,0.07h0l0,0c-0.05-0.01-0.09-0.07-0.08-0.12c0,0,0,0,0,0v-0.01L29.58,50.18z"/>	<path id="パス_812" class="st1" d="M33.69,51.4c-0.11-0.14-0.08-0.34,0.06-0.45l0.01-0.01c0.14-0.1,0.34-0.07,0.45,0.07		c0.11,0.14,0.08,0.34-0.06,0.45l-0.01,0.01C33.99,51.57,33.79,51.54,33.69,51.4z"/>	<path id="パス_813" class="st1" d="M34.4,50.02c-0.11-0.15-0.07-0.35,0.07-0.46c0,0,0,0,0,0c0.15-0.11,0.35-0.07,0.46,0.07		c0.11,0.15,0.07,0.35-0.07,0.46l0,0C34.71,50.19,34.51,50.16,34.4,50.02z"/>	<path id="パス_814" class="st1" d="M34.62,48.45c-0.11-0.15-0.07-0.35,0.07-0.46c0,0,0,0,0,0c0.15-0.11,0.35-0.07,0.46,0.07		c0.11,0.15,0.07,0.35-0.07,0.46l0,0c-0.14,0.11-0.34,0.08-0.45-0.06L34.62,48.45z"/>	<path id="パス_815" class="st1" d="M32.22,48.48c-0.06,0.01-0.12-0.04-0.13-0.1c0,0,0,0,0,0v-0.01l0,0		c0-0.07,0.05-0.12,0.12-0.13h1.34c0.06,0,0.11,0.04,0.11,0.1l0,0c0,0.06-0.04,0.11-0.1,0.12L32.22,48.48z"/>	<path id="パス_816" class="st1" d="M32.09,49.13c-0.06-0.02-0.1-0.08-0.08-0.14v0l0,0c0.02-0.06,0.08-0.1,0.14-0.08l1.28,0.4		c0.06,0.02,0.09,0.08,0.07,0.13l0,0c-0.01,0.05-0.07,0.09-0.12,0.08c0,0,0,0,0,0h-0.01L32.09,49.13z"/>	<path id="パス_817" class="st1" d="M31.75,49.67c-0.05-0.04-0.05-0.12,0-0.16l0,0l0,0c0.04-0.04,0.12-0.04,0.16,0l1.06,0.83		c0.04,0.04,0.04,0.1,0,0.14l0,0c-0.04,0.04-0.11,0.04-0.15,0c0,0,0,0,0,0L31.75,49.67z"/>	<path id="パス_818" class="st1" d="M51.18,27.53c0.16,0.12,0.34,0.22,0.53,0.3c0.18,0.08,0.31,0.24,0.34,0.44		c0.08,0.32,0.35,2.08,0.35,2.08l0.53-0.04c0,0-0.32-1.76-0.35-2.08c-0.04-0.2,0.03-0.4,0.18-0.53c0.18-0.15,0.33-0.33,0.44-0.54		c0-0.02,0-0.04,0-0.06c0.41-0.55,0.55-1.26,0.38-1.92c-0.15-1.02-1.1-1.73-2.12-1.58c0,0,0,0,0,0c-0.03,0-0.06,0.01-0.09,0.02		c-1,0.38-1.54,1.48-1.22,2.51C50.27,26.71,50.65,27.22,51.18,27.53z M51.48,24c0.82-0.15,1.61,0.4,1.75,1.23		c0,0.02,0.01,0.04,0.01,0.06c0.17,0.64-0.02,1.33-0.51,1.78c-0.09,0.07-0.23,0.05-0.29-0.04c0,0,0,0,0,0l-0.01-0.02l-0.36-0.5		c-0.07-0.1-0.14-0.08-0.18,0l-0.16,0.58c-0.04,0.12-0.21,0.14-0.3,0.12c-0.46-0.24-0.78-0.67-0.9-1.17		c-0.26-0.82,0.14-1.7,0.93-2.03L51.48,24z M59.56,35.35c0.26-0.78,0.64-1.51,1.12-2.17c0.12-0.24,0-0.4-0.27-0.35		c-1.07,0.25-2.11,0.58-3.13,0.98c-0.64,0.26-1.28,0.52-1.82,0.78c0.1-0.83,0.35-2.92,0.4-3.21c0.02-0.2,0.14-0.38,0.32-0.46		c0.22-0.09,0.41-0.23,0.58-0.4c0.03-0.04,0.05-0.08,0.06-0.12c0.75-0.45,1.02-1.39,0.64-2.17c-0.41-0.87-1.44-1.26-2.33-0.88		c-0.84,0.38-1.22,1.37-0.84,2.21c0.01,0.02,0.02,0.04,0.03,0.06c0.08,0.17,0.19,0.33,0.33,0.47c0.01,0.05,0.02,0.09,0.04,0.13		c0.1,0.26,0.4,0.43,0.47,0.52c0.15,0.13,0.23,0.33,0.2,0.53c0,0.33-0.44,3.52-0.44,3.52h0.07c-0.81,0.41-1.58,0.9-2.28,1.46		c0.04-0.3,0.08-0.64,0.12-0.99l0,0c0.01-0.03,0.03-0.06,0.06-0.07c0.61-0.29,1.09-0.8,1.35-1.43c0.04-0.12-0.06-0.2-0.14-0.06		c-0.28,0.5-0.69,0.92-1.19,1.2c-0.01,0.01-0.03,0.01-0.04,0c0.05-0.59,0.1-1.21,0.12-1.81l0,0c0.02-0.03,0.04-0.06,0.07-0.08		c0.46-0.17,0.87-0.45,1.2-0.81c0.06-0.12,0-0.19-0.13-0.08c-0.31,0.28-0.67,0.5-1.06,0.64c-0.05,0-0.07,0-0.07-0.04v-1.62		c0-0.06-0.05-0.1-0.1-0.1c-0.06,0-0.1,0.05-0.1,0.1l0,0l0,0c0.01,0.53-0.01,1.06-0.05,1.59h-0.06c-0.2-0.16-0.38-0.34-0.54-0.54		c-0.12-0.12-0.2-0.04-0.14,0.08c0.18,0.28,0.4,0.53,0.64,0.75c0.02,0.02,0.04,0.05,0.06,0.08l0,0c-0.04,0.64-0.09,1.28-0.14,1.76		c-0.39-0.51-0.7-1.07-0.93-1.67c-0.06-0.14-0.17-0.12-0.14,0c0.19,0.75,0.53,1.44,1.02,2.04c0.01,0.03,0.01,0.06,0,0.08		c-0.06,0.55-0.13,0.95-0.17,1.2c-0.4-0.92-0.91-1.78-1.54-2.56c-0.33-0.38-0.69-0.74-1.08-1.06l0.29-0.05c0,0-0.5-1.71-0.56-2.03		c-0.06-0.19-0.02-0.4,0.12-0.55c0.17-0.16,0.3-0.36,0.39-0.58c0-0.05,0-0.1,0-0.15c0.34-0.5,0.44-1.13,0.28-1.71		c-0.19-0.97-1.13-1.61-2.11-1.42c0,0,0,0,0,0c-0.97,0.19-1.61,1.14-1.42,2.11c0.02,0.09,0.04,0.18,0.08,0.27		c0.14,0.6,0.55,1.09,1.1,1.36c0.02,0.03,0.04,0.06,0.06,0.08c0.19,0.14,0.41,0.25,0.64,0.31c0.19,0.06,0.34,0.21,0.38,0.41		c0.09,0.23,0.36,1.28,0.49,1.75c-0.55-0.44-1.15-0.82-1.78-1.13c-0.3-0.1-0.35,0.14-0.32,0.26c0.15,0.76,0.18,1.53,0.08,2.29		c-0.08,0.61-0.3,1.18-0.64,1.69c-0.15-0.19-0.33-0.37-0.51-0.53c-0.11-0.1-0.26-0.05-0.31,0.11c-0.29,0.79-0.68,1.54-1.17,2.22		c-0.45,0.6-0.99,1.12-1.6,1.57c-0.52-0.98-1.23-1.86-2.09-2.56c-0.2-0.15-0.3,0-0.34,0.12c-0.37,1.37-0.9,2.7-1.58,3.95		c-0.71,1.26-1.64,2.39-2.72,3.35l-0.24-0.08c-0.65-0.16-1.31-0.25-1.98-0.28h-0.26c-0.1,0-0.1,0-0.13-0.1		c-0.02-0.07-0.05-0.15-0.09-0.22l0,0c-0.24-0.65-0.54-1.27-0.9-1.85c-0.33-0.51-0.73-0.97-1.19-1.37c-0.12-0.11-0.31-0.11-0.43,0		l-0.82,0.84c-0.03,0.03-0.08,0.04-0.12,0.01c0,0,0,0,0,0l0,0l-0.82-0.84c-0.13-0.11-0.32-0.11-0.44,0		c-0.46,0.4-0.86,0.87-1.19,1.37c-0.35,0.58-0.65,1.19-0.88,1.82c0,0.01,0,0.03,0,0.04l-0.1,0.17c-0.03,0.09-0.05,0.1-0.13,0.1		h-0.22c-0.7,0.03-1.4,0.13-2.08,0.3l-0.47,0.14c-0.97-0.84-1.81-1.83-2.49-2.92c-0.7-1.37-1.33-2.78-1.88-4.22		c-0.08-0.13-0.17-0.16-0.28-0.06c-0.71,0.73-1.31,1.56-1.79,2.46c-0.43-0.37-0.83-0.78-1.17-1.24c-0.56-0.8-1.14-1.83-1.21-1.92		c-0.07-0.1-0.2-0.24-0.35-0.06l-0.42,0.49c-0.32-0.48-0.58-1-0.77-1.54c-0.25-0.8-0.42-1.62-0.51-2.45c0-0.18-0.12-0.27-0.37-0.15		c-0.65,0.37-1.25,0.81-1.79,1.33c0.17-0.86,0.51-2.56,0.57-2.83c0.04-0.2,0.17-0.36,0.35-0.43c0.22-0.08,0.43-0.2,0.6-0.35		l0.06-0.09c0.53-0.31,0.89-0.84,0.99-1.45c0.24-1.02-0.37-2.04-1.39-2.31c-1.04-0.12-1.99,0.61-2.13,1.65		c-0.11,0.59,0.04,1.21,0.41,1.68c0,0.05,0,0.1,0,0.14c0.08,0.27,0.37,0.47,0.43,0.56c0.14,0.14,0.21,0.34,0.17,0.54		c0,0.24-0.38,1.92-0.56,2.81c-0.2-0.5-0.44-0.99-0.72-1.46c-0.34-0.55-0.81-1.01-1.37-1.35c-0.04-0.64-0.14-2.42-0.12-2.69		c-0.02-0.2,0.08-0.39,0.24-0.51c0.17-0.11,0.32-0.24,0.46-0.4c0.45-0.4,0.71-0.97,0.72-1.57c0.11-1.07-0.63-2.04-1.69-2.22		c-1.03,0-1.86,0.84-1.86,1.87c0,0.02,0,0.03,0,0.05c-0.04,0.69,0.24,1.36,0.76,1.82v0.06c0.15,0.18,0.33,0.33,0.54,0.44		c0.17,0.1,0.28,0.29,0.28,0.49c0,0.26,0.1,1.98,0.12,2.67l0,0c-0.74,0.64-1.4,1.36-1.97,2.15c-0.23,0.36-0.45,0.73-0.64,1.11		c-0.08-0.91-0.3-2.59-0.31-2.83c-0.04-0.19,0.03-0.39,0.17-0.52c0.07-0.08,0.37-0.26,0.47-0.52c0.02-0.04,0.03-0.09,0.03-0.13		c0.67-0.66,0.67-1.74,0.01-2.4c0,0,0,0,0,0c-0.14-0.14-0.31-0.26-0.49-0.34C4.16,27,3.13,27.39,2.72,28.26		c-0.39,0.78-0.11,1.73,0.64,2.18c0.01,0.04,0.04,0.08,0.06,0.12c0.17,0.17,0.36,0.3,0.58,0.4c0.18,0.09,0.3,0.26,0.32,0.46		c0.06,0.28,0.35,2.82,0.42,3.4c-0.42-0.16-0.85-0.29-1.28-0.39c-0.33-0.08-2.05-0.51-2.63-0.74c-0.19-0.08-0.29,0.03-0.29,0.18		s-0.04,3.21,0.64,4.86c0.32,0.75,0.72,1.46,1.19,2.13c-0.33,0.06-0.65,0.17-0.95,0.31c-0.26,0.14-0.12,0.31-0.08,0.38		c0.94,1.58,2.04,3.06,3.28,4.42c0.99,0.98,2.07,1.87,3.21,2.67l-0.11,0.09c-0.19,0.17-0.21,0.27,0,0.4		c0.21,0.13,2.7,3.21,9.42,3.12c1.52,0,3.03-0.2,4.49-0.6c-0.11,0.05-0.22,0.12-0.33,0.17c-2.07,1.09-3.08,1.53-3.21,1.6		c-0.09,0.05-0.12,0.16-0.08,0.25c0.02,0.03,0.04,0.06,0.08,0.08l1.69,0.93c0.08,0.03,0.16,0.03,0.24,0		c1.03-0.49,2.02-1.07,2.96-1.71c0.64-0.43,1.01-0.76,1.28-0.96c-0.03,0.24-0.06,0.47-0.06,0.64c-0.03,0.61,0.02,1.21,0.15,1.81		c0.03,0.16,0.17,0.28,0.34,0.26l1.17-0.2c0.05,0,0.09,0.03,0.1,0.08l0.17,1.16c0.04,0.16,0.19,0.27,0.36,0.26		c0.61-0.06,1.2-0.2,1.77-0.41c0.61-0.25,1.2-0.57,1.75-0.94c0.02-0.01,0.04-0.02,0.06-0.04l0.18-0.12c0.08-0.05,0.1-0.04,0.17,0		l0.25,0.16c0.55,0.37,1.14,0.68,1.76,0.92c0.57,0.22,1.16,0.35,1.76,0.41c0.16,0.03,0.32-0.08,0.36-0.24l0.17-1.17		c0-0.05,0.05-0.08,0.09-0.07c0,0,0,0,0,0h0.01l1.16,0.19c0.17,0.02,0.33-0.1,0.36-0.26c0.11-0.58,0.14-1.18,0.1-1.77		c-0.01-0.26-0.04-0.52-0.08-0.78c0.52,0.43,2.96,2.56,3.02,2.56c0.05,0.04,0.11,0.07,0.17,0.09h0.08c0.09,0,2.3-0.38,2.3-0.38		c0.21-0.04,0.28-0.26,0.14-0.35c-0.13-0.1-1.58-0.89-2.83-1.67c-0.73-0.46-1.39-0.92-1.88-1.28c1.33,0.43,2.68,0.78,4.05,1.05		c1.48,0.31,6.72,1.46,11.45-2.22c0.09-0.07,0.1-0.2,0.02-0.29c-0.01-0.01-0.02-0.02-0.02-0.02c0,0-0.3-0.26-0.74-0.64		c1.17-0.68,2.29-1.45,3.35-2.29c1.35-1.16,2.56-2.48,3.59-3.93c0.3-0.29,0.63-0.55,0.98-0.77c0.09-0.05,0.13-0.16,0.08-0.26		c-0.03-0.05-0.08-0.09-0.14-0.1c-1.02-0.29-2.07-0.46-3.13-0.52c0.67-0.68,1.23-1.47,1.64-2.33		C58.91,37.47,59.26,36.41,59.56,35.35L59.56,35.35z M10.27,27.98c0.1-0.84,0.86-1.44,1.7-1.35c0.82,0.21,1.33,1.03,1.13,1.86		c-0.09,0.64-0.56,1.17-1.19,1.33c-0.05-0.02-0.08-0.06-0.1-0.1l-0.14-0.59c0-0.12-0.11-0.13-0.18-0.04l-0.37,0.49		c-0.03,0.04-0.07,0.08-0.12,0.1C10.43,29.33,10.14,28.65,10.27,27.98L10.27,27.98z M55.2,30.16c-0.28-0.13-0.51-0.36-0.64-0.64		c-0.33-0.66-0.06-1.47,0.6-1.8l0.04-0.02c0.71-0.31,1.54-0.01,1.88,0.68c0.32,0.67,0.04,1.47-0.63,1.8l-0.05,0.02		c-0.1,0.04-0.21,0.08-0.31,0.1c-0.04-0.03-0.08-0.08-0.09-0.13l-0.21-0.58c-0.04-0.12-0.12-0.12-0.19,0l-0.31,0.51		C55.27,30.13,55.24,30.15,55.2,30.16L55.2,30.16z M49.31,29.62c-0.05-0.01-0.1-0.04-0.13-0.08l-0.41-0.46		c-0.08-0.09-0.16-0.06-0.18,0.05l-0.1,0.6c-0.01,0.05-0.04,0.09-0.09,0.12c-0.63-0.12-1.14-0.61-1.28-1.24		c-0.25-0.8,0.19-1.65,0.98-1.92c0.82-0.17,1.63,0.36,1.8,1.19C50.08,28.52,49.85,29.22,49.31,29.62L49.31,29.62z M47.77,34.11		c0.09-0.64,0.09-1.29,0-1.92c0-0.15,0-0.13,0.2,0c0.96,0.57,1.82,1.28,2.56,2.11c0.62,0.8,1.13,1.69,1.52,2.63		c-0.4,0.39-0.76,0.82-1.08,1.28c-0.75,0.67-1.62,1.2-2.56,1.54c-0.04,0-0.08-0.03-0.08-0.07l0,0v-0.22		c-0.04-0.29-0.09-0.58-0.16-0.87l0,0v-0.11c1.11-0.52,2.03-1.37,2.64-2.44c0.06-0.12-0.06-0.28-0.15-0.12		c-0.6,0.99-1.5,1.77-2.56,2.24c0,0-0.05,0-0.08-0.07l0,0c-0.09-0.28-0.19-0.54-0.3-0.79c-0.02-0.05-0.02-0.1,0-0.14		c0.6-1.04,0.84-2.24,0.69-3.43c0-0.13-0.18-0.17-0.18,0c0.1,1.07-0.12,2.16-0.64,3.1c0,0-0.05,0.08-0.08,0		c-0.11-0.22-0.24-0.44-0.38-0.64c0.37-0.65,0.6-1.37,0.66-2.12L47.77,34.11z M48.42,41.8v-0.03c0.33-0.03,0.66-0.1,0.97-0.21		c0.04,0,0,0.04,0,0.06c-0.1,0.45-0.15,0.83-0.19,1.08c-0.31,0.2-0.6,0.4-0.84,0.59c0.07-0.51,0.1-1.02,0.09-1.53L48.42,41.8z		 M48.45,41.47c-0.03,0-0.03,0-0.04-0.06l0,0c-0.01-0.43-0.05-0.86-0.1-1.28v-0.05c0.81-0.31,1.57-0.75,2.24-1.31		c-0.15,0.26-0.3,0.53-0.43,0.79c-0.28,0.53-0.49,1.09-0.64,1.67c0,0,0,0.04-0.06,0.06c-0.3,0.09-0.61,0.14-0.92,0.14L48.45,41.47z		 M46.18,35.78c0-0.04,0-0.1,0.09,0s1.4,1.38,1.69,4.31c0.14,1.18,0.14,2.38,0,3.56c-0.53,0.46-0.98,1.01-1.33,1.62		c-0.47-0.19-0.96-0.34-1.46-0.45c-0.36-0.08-0.72-0.14-1.08-0.18v-1.08c0,0,0-0.04,0.05-0.04c1.1-0.16,2.16-0.53,3.12-1.1		c0.1-0.07,0.06-0.24-0.08-0.16c-0.95,0.51-1.99,0.83-3.06,0.95c-0.02,0.01-0.04,0.01-0.05,0c-0.01-0.49-0.06-0.99-0.14-1.47v-0.06		c1.11-0.13,2.17-0.49,3.14-1.04c0.11-0.06,0.07-0.24-0.08-0.16c-0.96,0.49-1.99,0.8-3.06,0.9c-0.04,0-0.08-0.03-0.08-0.08		c-0.02-0.18-0.05-0.35-0.1-0.52c-0.04-0.17-0.06-0.29-0.1-0.43c-0.04-0.14,0-0.08,0.04-0.1c0.4-0.28,0.74-0.63,1.03-1.02l0,0		c0.03,0,0.06-0.01,0.08-0.03c0.62-0.03,1.22-0.26,1.71-0.64c0.09-0.09,0.04-0.17-0.1-0.09c-0.43,0.3-0.93,0.47-1.45,0.49		c-0.04,0,0,0,0-0.04l0,0c0.31-0.53,0.5-1.12,0.55-1.73C45.78,36.74,46.01,36.27,46.18,35.78L46.18,35.78z M44.81,38.05		c0.1-0.13,0.19-0.24,0.27-0.35c0.08-0.11,0.06-0.04,0.05,0c-0.27,0.87-0.8,1.64-1.52,2.21c0,0-0.06,0.05-0.1,0l0,0		c-0.06-0.16-0.12-0.31-0.19-0.46C43.88,39.06,44.38,38.59,44.81,38.05L44.81,38.05z M39.68,40.33c0.5-1.04,0.93-2.11,1.28-3.21		c0-0.08,0.07-0.1,0.17,0c0.97,0.95,1.69,2.12,2.12,3.41c0.34,1.33,0.48,2.7,0.41,4.07c-0.94-0.08-1.89-0.02-2.81,0.18		c0.61-0.46,1.18-0.95,1.72-1.49c0.08-0.1,0-0.19-0.11-0.07c-0.69,0.63-1.42,1.21-2.2,1.72c-0.9,0.26-1.73,0.74-2.42,1.38		l-0.31-0.15c-0.04-0.02-0.06-0.08-0.04-0.12l0,0l0.54-1.04c0.06-0.16,0-0.33-0.14-0.42l-0.19-0.1c0.32-0.29,0.63-0.59,0.92-0.91		l0,0c1.51-0.17,2.92-0.86,3.98-1.95c0.1-0.08,0.03-0.24-0.1-0.13c-1,0.96-2.27,1.6-3.64,1.82l0,0c0.59-0.68,1.06-1.46,1.4-2.29l0,0		c0.69-0.14,1.27-0.63,1.51-1.29c0.06-0.11-0.04-0.21-0.12-0.06c-0.23,0.55-0.71,0.96-1.28,1.11l0,0c0.19-0.6,0.34-1.22,0.43-1.85		c0-0.13-0.1-0.19-0.12,0c-0.41,2.83-2.56,4.87-3.21,5.45c-0.18-0.09-0.37-0.17-0.56-0.24c1.15-1.09,2.09-2.38,2.77-3.81		L39.68,40.33z M19.27,37.39c0.06,0,0.09,0,0.12,0.08c0.47,1.25,1.01,2.47,1.62,3.66c0.67,1.14,1.52,2.17,2.51,3.06		c-0.27,0.11-0.54,0.25-0.79,0.4c-0.15,0.08-0.21,0.26-0.14,0.41c0,0,0.54,1.04,0.54,1.05c0.02,0.04,0.01,0.09-0.03,0.11h-0.01		l-0.12,0.06c-0.72-0.45-1.52-0.77-2.35-0.96c-0.95-0.76-1.84-1.58-2.66-2.48c-0.14-0.17-0.26-0.05-0.15,0.08		c0.68,0.8,1.41,1.55,2.19,2.26c-0.89-0.16-1.8-0.22-2.7-0.17c-0.48-1.53-0.43-3.18,0.14-4.67C17.87,39.21,18.49,38.24,19.27,37.39		L19.27,37.39z M14.84,36.55c0.07-0.1,0.08,0,0.13,0.1c0.32,0.59,0.67,1.15,1.07,1.69c0.38,0.47,0.79,0.92,1.24,1.33		c-0.11,0.23-0.21,0.47-0.3,0.71c-0.75-0.8-1.3-1.77-1.62-2.82c-0.05-0.14-0.2-0.1-0.16,0.07c0.14,0.55,0.34,1.08,0.6,1.59l0,0		c-0.32-0.22-0.61-0.48-0.87-0.76c-0.09-0.1-0.21-0.03-0.15,0.08c0.38,0.5,0.84,0.92,1.37,1.25c0.03,0.03,0.06,0.06,0.08,0.09l0,0		c0.18,0.28,0.4,0.54,0.64,0.78c-0.11,0.37-0.2,0.75-0.25,1.13c0,0.04-0.11,0-0.13,0c-0.88-0.43-1.66-1.04-2.28-1.79		c-0.11-0.12-0.24,0.04-0.15,0.13c0.66,0.85,1.5,1.55,2.46,2.04c0.03,0.03,0.06,0.07,0.08,0.12c-0.02,0.53,0.01,1.07,0.09,1.6l0,0		c-0.02,0.05-0.07,0.07-0.12,0.05c0,0,0,0,0,0c-0.96-0.47-1.82-1.12-2.52-1.92c-0.11-0.13-0.21,0-0.13,0.12		c0.34,0.46,0.71,1.04,2.85,2.27c0.02,0.02,0.04,0.05,0.05,0.08c0.04,0.17,0.08,0.3,0.1,0.39c-0.34,0.01-0.67,0.05-1.01,0.11		c-0.37,0.05-0.84,0.15-1.24,0.24c-0.61-0.64-1.27-1.24-1.97-1.8c0.01-1.28,0.15-2.55,0.41-3.8C13.46,38.49,14.05,37.44,14.84,36.55		L14.84,36.55z M10.51,34.66c0.62-0.68,1.33-1.28,2.1-1.77c0.09-0.07,0.12,0,0.12,0.06c0.1,0.71,0.25,1.4,0.44,2.09		c0.24,0.64,0.55,1.25,0.92,1.82l-0.19,0.25c-0.01,0-0.03,0-0.04,0c-0.78-0.74-1.32-1.71-1.54-2.76c-0.04-0.16-0.2-0.06-0.17,0.06		c0.1,0.44,0.24,0.87,0.42,1.28c0,0.03,0,0.05-0.08,0c-0.27-0.24-0.52-0.51-0.74-0.8c-0.1-0.13-0.23,0-0.16,0.11		c0.31,0.52,0.73,0.95,1.23,1.28l0.06,0.06c0.21,0.37,0.48,0.71,0.79,1c0.03,0.03,0.04,0.08,0.03,0.13c-0.27,0.41-0.5,0.84-0.7,1.28		h-0.06c-0.76-0.73-1.44-1.55-2.02-2.44c-0.1-0.14-0.23,0-0.16,0.08c0.57,0.95,1.25,1.82,2.04,2.59c0.03,0.03,0.05,0.06,0.05,0.1		c-0.13,0.33-0.22,0.67-0.28,1.02l-0.04,0.25l0,0c-0.04,0.04-0.04,0.06-0.08,0.04c-1.01-0.73-1.88-1.64-2.56-2.69		c-0.11-0.16-0.24-0.04-0.17,0.08c0.65,1.2,1.58,2.22,2.7,2.99l0.04,0.06c-0.1,0.79-0.16,1.59-0.17,2.39l-0.2-0.16l-0.26-0.18		c-0.43-1.39-1.1-2.69-1.99-3.85c-0.38-0.51-0.74-0.96-1.1-1.36C9.21,36.62,9.8,35.6,10.51,34.66L10.51,34.66z M8.23,31.3		c0.6,0.45,1.09,1.02,1.44,1.69c0.24,0.46,0.45,0.94,0.64,1.42c-0.25,0.28-0.47,0.58-0.68,0.9c-0.43,0.67-0.82,1.37-1.16,2.09		c-0.09-0.1-0.18-0.19-0.28-0.28c-0.09-0.09,0-0.4-0.04-0.87c0-0.03,0.02-0.05,0.04-0.07c0.38-0.31,0.7-0.7,0.92-1.14		c0.06-0.1-0.06-0.24-0.15-0.1c-0.23,0.33-0.51,0.62-0.83,0.86H8.09v-1.58l0,0c0.02-0.03,0.04-0.05,0.06-0.08		c0.4-0.31,0.72-0.7,0.95-1.14c0.06-0.12,0-0.21-0.13-0.08c-0.23,0.29-0.48,0.58-0.75,0.84C8.2,33.79,8.15,33.8,8.1,33.79		c0,0.01,0,0.03,0,0.04C8.1,32.99,8.14,32.14,8.23,31.3L8.23,31.3z M7.59,27c-0.03,0.11-0.15,0.17-0.26,0.14		c-0.01,0-0.03-0.01-0.04-0.02c-0.57-0.35-0.89-0.98-0.84-1.65c-0.04-0.83,0.59-1.53,1.42-1.57c0,0,0,0,0,0c0.02,0,0.04,0,0.05,0		c0.85,0.15,1.44,0.93,1.35,1.8c0,0.52-0.24,1.01-0.64,1.35c-0.11,0.05-0.24,0.03-0.32-0.06l-0.27-0.54c-0.05-0.1-0.13-0.1-0.18,0		L7.59,27z M6.15,33.22c0.54-0.7,1.15-1.35,1.82-1.92l0.04-0.04c-0.12,0.97-0.19,1.94-0.21,2.92c-0.03,0.02-0.06,0.02-0.09,0		c-0.19-0.31-0.35-0.64-0.48-0.97c-0.05-0.16-0.2-0.1-0.17,0c0.13,0.47,0.35,0.9,0.64,1.28c0.04,0.06,0.08,0.12,0.11,0.19v1.25		c0,0.04-0.04,0.09-0.06,0.06C7.36,35.61,7,35.21,6.68,34.79c-0.11-0.13-0.19,0-0.13,0.08s0.7,0.97,1.2,1.51		c0.03,0.05,0.05,0.09,0.07,0.14v0.24c-0.75-0.72-1.62-1.31-2.57-1.74C5.51,34.4,5.81,33.8,6.15,33.22L6.15,33.22z M4.52,29.58		c-0.06-0.1-0.14-0.1-0.19,0l-0.21,0.58c-0.02,0.05-0.05,0.1-0.1,0.13c-0.1-0.02-0.19-0.04-0.28-0.08		c-0.69-0.28-1.02-1.07-0.74-1.75c0,0,0,0,0,0c0.01-0.02,0.02-0.04,0.03-0.07c0.34-0.69,1.17-0.99,1.87-0.68		c0.68,0.29,1,1.08,0.7,1.76c-0.01,0.02-0.02,0.04-0.03,0.05c-0.13,0.28-0.36,0.51-0.64,0.64c-0.06,0-0.11-0.02-0.14-0.07		L4.52,29.58z M1.43,38.18c-0.34-1.29-0.5-2.61-0.49-3.94c0-0.09,0.03-0.1,0.13-0.06c0.99,0.35,3.21,0.83,4.05,1.2		c2.21,0.99,3.9,3.26,4.28,3.75c0.79,1.04,1.43,2.2,1.88,3.42c-0.65-0.4-1.34-0.73-2.05-1l0,0c-0.01-0.05-0.01-0.11,0-0.16		c0.03-0.52,0-1.03-0.07-1.54c0-0.12-0.17-0.12-0.17,0.04c0.06,0.49,0.06,0.99,0,1.48c0,0.03-0.02,0.05-0.04,0.07		c-0.57-0.2-1.15-0.37-1.74-0.5c-0.01-0.02-0.01-0.05,0-0.08c0.12-0.85,0.12-1.71,0-2.56c-0.03-0.12-0.17-0.1-0.16,0.05		c0.05,0.83,0.01,1.67-0.1,2.5c0,0.02-0.01,0.04-0.03,0.04c-0.31-0.07-0.64-0.13-0.99-0.18c-0.35-0.05-0.53-0.06-0.78-0.08v-0.06		c0.17-1.31,0.15-2.65-0.06-3.95c-0.04-0.12-0.21-0.13-0.18,0c0.17,1.3,0.17,2.63,0,3.93c0,0.02-0.02,0.04-0.04,0.05		c-0.4-0.03-0.8-0.03-1.19,0l0,0c-0.36-0.57-0.66-1.17-0.9-1.8l-0.16-0.4l0,0v-0.12c0.62-0.7,0.89-1.64,0.76-2.56		c0-0.14-0.14-0.1-0.13,0c0.08,0.85-0.2,1.69-0.78,2.32H2.4c-0.13-0.37-0.31-0.84-0.52-1.46c0-0.08-0.17-0.07-0.13,0.07		c0.19,0.76,0.43,1.51,0.71,2.24c0.16,0.41,0.57,1.28,0.81,1.72v0.06L2.8,40.75C2.22,39.97,1.75,39.1,1.43,38.18L1.43,38.18z		 M4.39,45.12C3.42,44,2.56,42.78,1.83,41.48c-0.03-0.06,0-0.06,0.04-0.1c1.38-0.41,2.83-0.5,4.25-0.25		c3.1,0.46,5.94,1.97,8.06,4.27l0,0c-0.54,0.14-1.08,0.31-1.6,0.51c0,0-0.04,0-0.04-0.06c-0.03-0.44-0.12-0.87-0.25-1.28		c-0.05-0.13-0.18-0.07-0.15,0c0.13,0.45,0.18,0.93,0.14,1.4c0,0.02,0,0.05,0,0.07c-0.54,0.22-1.04,0.45-1.51,0.68		c-0.01-0.01-0.01-0.03,0-0.04c-0.06-1.02-0.27-2.02-0.64-2.96c-0.07-0.11-0.2-0.06-0.15,0.09c0.28,0.97,0.44,1.98,0.49,2.99		c0.01,0.03,0.01,0.07,0,0.1C10,47.12,9.6,47.36,9.25,47.58c-0.04,0.02-0.09,0.02-0.13,0c-0.07-0.03-0.14-0.07-0.2-0.1		c-0.01-0.02-0.01-0.05,0-0.08c0.01-1.58-0.37-3.14-1.11-4.54c-0.06-0.11-0.19-0.08-0.13,0.06c0.63,1.35,0.96,2.81,0.98,4.3		c0.01,0.03,0.01,0.06,0,0.08c-0.67-0.37-1.32-0.8-1.93-1.27c-0.03-0.04-0.04-0.08-0.05-0.12c-0.13-1.39-0.53-2.74-1.19-3.98		c-0.08-0.1-0.2,0-0.12,0.11c0.52,1.15,0.86,2.37,1.01,3.62c0,0.04-0.03,0.04-0.06,0c-0.8-0.69-1.47-1.38-1.97-1.88		c-0.12-0.12-0.21,0.04-0.12,0.13c1.35,1.5,2.89,2.81,4.58,3.9c0.06,0.04,0.05,0,0,0.07c-0.24,0.17-0.46,0.32-0.64,0.45		C6.77,47.44,5.51,46.36,4.39,45.12L4.39,45.12z M17.11,51.81c-1.88,0.06-6.06-0.18-8.92-2.77c-0.08-0.08-0.08-0.12,0.08-0.23		c2.17-1.72,4.74-2.86,7.47-3.3c2.32-0.46,4.72-0.13,6.82,0.94l-0.51,0.25c-0.14,0.09-0.2,0.27-0.13,0.42		c0.24,0.56,0.56,1.08,0.94,1.56c0.18,0.23,0.38,0.44,0.59,0.64c-0.14,0.06-0.37,0.16-0.64,0.27l0,0c-0.03,0-0.06-0.02-0.08-0.04		c-1.03-1.32-2.29-2.45-3.7-3.33c-0.1-0.04-0.16,0.04-0.04,0.11c1.32,0.91,2.49,2.03,3.45,3.31v0.08c-0.93,0.3-1.88,0.51-2.85,0.64		c0,0-0.04,0-0.06-0.07c-0.82-1.55-2.07-2.83-3.61-3.69c-0.12-0.06-0.2,0-0.06,0.12c1.37,0.94,2.5,2.19,3.29,3.65v0.08		c-1.04,0.14-2.1,0.19-3.15,0.15c-0.02-0.02-0.04-0.04-0.06-0.06c-0.76-1.28-1.74-2.42-2.89-3.36c-0.11-0.06-0.19,0-0.07,0.13		c1.07,0.89,1.96,1.98,2.63,3.21c0,0.04,0,0.06-0.03,0.06c-0.86-0.05-1.72-0.15-2.56-0.31l0,0c-0.09-0.03-0.17-0.09-0.22-0.17		c-0.57-0.68-1.24-1.28-1.98-1.77c-0.11-0.06-0.14,0.04-0.09,0.1c0.66,0.51,1.26,1.09,1.81,1.72l0,0c-1.01-0.21-2-0.49-2.96-0.84		c-0.17-0.06-0.15,0.13,0,0.18c4.54,1.82,9.61,1.85,14.17,0.06c0.17,0.16,0.35,0.3,0.5,0.43l-0.11,0.08		C23.55,50.45,21.39,51.69,17.11,51.81L17.11,51.81z M24.52,50.63c-0.06,0.21-0.12,0.46-0.18,0.72c-0.56,0.51-1.15,0.98-1.78,1.4		c-0.83,0.55-1.7,1.05-2.6,1.49c-0.05,0.03-0.11,0.03-0.17,0c-0.03,0-1.1-0.6-1.11-0.6c-0.03-0.02-0.04-0.07-0.02-0.1c0,0,0,0,0,0		c0.01-0.01,0.01-0.02,0.02-0.02c0.06-0.03,1.96-0.94,2.97-1.49c1-0.53,1.96-1.12,2.88-1.78c0.06,0.05,0.05,0.07,0.03,0.14		C24.55,50.47,24.53,50.57,24.52,50.63L24.52,50.63z M35.96,54.14c0,0.13-0.07,0.18-0.21,0.17l-1.2-0.19		c-0.07-0.01-0.14,0.04-0.15,0.11v0.01c0,0-0.17,1.08-0.2,1.19c-0.02,0.1-0.12,0.17-0.22,0.15h-0.01c-0.5-0.04-0.99-0.16-1.46-0.34		c-0.7-0.29-1.36-0.67-1.97-1.13l0,0c-0.19-0.15-0.21-0.2-0.37-0.07c-0.05,0.04-0.12,0.08-0.18,0.13c-0.58,0.43-1.22,0.79-1.89,1.07		c-0.47,0.18-0.96,0.3-1.46,0.34c-0.13,0-0.2,0-0.22-0.14l-0.21-1.2c-0.01-0.07-0.07-0.12-0.14-0.11l-0.02,0		c0,0-1.09,0.17-1.19,0.18c-0.1,0.01-0.19-0.06-0.21-0.17c-0.11-0.49-0.16-0.99-0.13-1.49c0.07-0.76,0.23-1.5,0.47-2.22l0,0		c0.08-0.24,0.12-0.28-0.04-0.38l-0.19-0.13c-0.6-0.42-1.14-0.92-1.62-1.47c-0.31-0.39-0.57-0.82-0.77-1.28		c-0.06-0.12-0.05-0.19,0.06-0.26c0,0,1.08-0.56,1.08-0.56c0.07-0.03,0.09-0.11,0.06-0.18c0,0,0,0,0,0l-0.01-0.01		c0,0-0.49-0.97-0.54-1.07c-0.04-0.1,0-0.19,0.1-0.25c0.43-0.26,0.89-0.46,1.38-0.59c0.74-0.17,1.49-0.25,2.25-0.24l0,0		c0.28,0,0.32,0.04,0.37-0.15c0.02-0.08,0.04-0.15,0.07-0.22c0.22-0.69,0.53-1.35,0.9-1.97c0.28-0.42,0.61-0.8,0.99-1.13		c0.1-0.08,0.17-0.11,0.27,0l0.87,0.85c0.04,0.05,0.12,0.06,0.18,0.02c0,0,0,0,0,0c0.01-0.01,0.01-0.01,0.02-0.02		c0,0,0.78-0.78,0.86-0.84c0.07-0.07,0.19-0.07,0.26,0c0.38,0.33,0.71,0.71,0.99,1.13c0.39,0.65,0.7,1.34,0.92,2.06l0,0		c0.07,0.25,0.06,0.3,0.26,0.29h0.1c0.77-0.01,1.53,0.07,2.28,0.24c0.48,0.13,0.95,0.33,1.38,0.59c0.12,0.06,0.15,0.12,0.1,0.24		l-0.54,1.09c-0.03,0.07-0.01,0.15,0.06,0.18l0.01,0c0,0,0.97,0.5,1.06,0.56c0.09,0.05,0.12,0.17,0.07,0.26		c-0.2,0.46-0.46,0.89-0.78,1.28c-0.49,0.57-1.04,1.08-1.65,1.51c-0.22,0.14-0.27,0.14-0.2,0.34c0,0.04,0.01,0.08,0.04,0.12		c0.25,0.72,0.41,1.46,0.47,2.22C36.13,53.15,36.08,53.65,35.96,54.14L35.96,54.14z M38.61,52.21c1.28,0.85,2.56,1.56,2.64,1.6		c0.02,0.02,0.03,0.06,0.01,0.08l-0.01,0.01l-1.51,0.26c-0.07,0.01-0.14-0.01-0.19-0.05c-0.05-0.05-1.28-1.13-1.65-1.42l-1.66-1.43		c-0.05-0.22-0.11-0.44-0.16-0.64l0,0c-0.01-0.07-0.03-0.13-0.06-0.19l0,0l0.13,0.04c0.41,0.28,1.3,0.94,2.46,1.72L38.61,52.21z		 M52.38,49.45c0.08,0.08,0.07,0.1,0,0.14c-2.08,1.52-4.59,2.34-7.17,2.33c-3.25,0.04-7.62-1.4-8.77-1.8l-0.1-0.09		c0.28-0.22,0.54-0.46,0.79-0.7c1.88,0.78,8.24,3.12,13.2,0.49c0.11-0.06,0-0.21-0.12-0.13c-0.73,0.34-1.49,0.6-2.28,0.77		c0,0-0.04-0.04,0-0.06c0.54-0.45,1.13-0.84,1.76-1.16c0.07-0.04,0.05-0.14-0.07-0.11c-0.83,0.34-1.6,0.81-2.28,1.39		c-0.06,0.04-0.12,0.06-0.19,0.08l0,0c-0.8,0.12-1.61,0.17-2.42,0.15V50.7c0.99-0.98,2.17-1.75,3.46-2.28		c0.14-0.06,0.09-0.16,0-0.14c-1.44,0.48-2.75,1.31-3.8,2.42c-0.04,0.03-0.09,0.05-0.14,0.05c-1.33-0.07-2.64-0.29-3.92-0.64		c-0.02-0.01-0.03-0.04-0.02-0.06c0-0.01,0.01-0.01,0.02-0.02c1.38-1.19,3-2.06,4.76-2.56c0.15-0.04,0.1-0.15,0-0.13		c-1.88,0.44-3.62,1.34-5.08,2.61c-0.02,0.02-0.05,0.03-0.07,0.04c-0.85-0.25-1.68-0.55-2.49-0.9l0.26-0.29		c1.43-1.19,3.09-2.07,4.88-2.56c0.15-0.04,0.1-0.15,0-0.13c-1.55,0.34-3.02,0.97-4.33,1.87c0.17-0.27,0.32-0.55,0.44-0.84		c0.07-0.15,0.02-0.33-0.13-0.42l-0.37-0.18c0.38-0.37,2.21-1.92,5.95-1.5c2.99,0.33,6.45,2.87,8.22,4.41L52.38,49.45z M59.32,41.61		c0.21,0.04,0.1,0.12,0,0.17c-0.37,0.27-0.69,0.59-0.96,0.95c-0.82,1.25-1.83,2.37-3,3.31c-1.1,0.92-2.29,1.74-3.54,2.44		c-0.21-0.17-0.44-0.35-0.69-0.54l0,0c-0.04-0.06-0.06-0.04,0-0.08c0.94-0.38,2.01-0.81,4.31-3.12c0.88-0.84,1.83-1.61,2.85-2.28		c0.1-0.07,0.06-0.22-0.08-0.13c-0.88,0.52-1.7,1.12-2.46,1.8l0,0c-0.02-0.03-0.02-0.06,0-0.08c0.17-0.59,0.42-1.15,0.75-1.67		c0.08-0.13,0-0.2-0.1-0.1c-0.47,0.63-0.81,1.35-0.97,2.12c-0.01,0.04-0.03,0.08-0.05,0.12l-0.04,0.04c-0.67,0.7-1.4,1.33-2.19,1.88		c-0.01-0.03-0.01-0.06,0-0.08c0.1-1.33,0.44-2.63,0.98-3.85c0.05-0.14-0.07-0.17-0.13-0.06c-0.65,1.27-1.03,2.66-1.12,4.09		c0,0.04-0.02,0.08-0.04,0.11c-0.61,0.42-1.28,0.76-1.97,1.01h-0.08c-0.22-0.17-0.46-0.33-0.71-0.5c0-0.02,0-0.05,0-0.07		c0.17-1.19,0.48-2.36,0.94-3.47c0.05-0.15-0.05-0.18-0.12-0.07c-0.55,1.05-0.91,2.18-1.08,3.35c0,0.05,0,0.05-0.04,0.05		c-0.49-0.33-1.02-0.64-1.57-0.94c-0.02-0.02-0.03-0.05-0.04-0.08c-0.08-0.4-0.1-0.81-0.04-1.21c0-0.08-0.1-0.12-0.13,0		c-0.07,0.35-0.09,0.71-0.07,1.07c0,0.05,0,0.05-0.03,0.04c-0.29-0.14-0.58-0.29-0.87-0.42c1.31-2.37,4.93-3.85,7.22-4.1		C55.94,41.12,57.66,41.22,59.32,41.61z M56.31,40.84h-1.23c-0.08,0,0.06-0.09,0.12-0.14c0.84-0.82,1.56-1.75,2.12-2.78		c0.48-1.05,1.06-2.06,1.71-3.01c0.08-0.1-0.06-0.24-0.16-0.11c-0.56,0.75-1.06,1.55-1.47,2.39l0,0c-0.03-0.02-0.05-0.05-0.05-0.08		c-0.12-0.63-0.14-1.28-0.04-1.92c0-0.15-0.1-0.17-0.13-0.04c-0.17,0.77-0.17,1.56,0,2.33c0,0.03,0,0.06,0,0.1l-0.15,0.26		c-0.47,0.77-1.01,1.49-1.62,2.16l0,0c0,0-0.08,0-0.09-0.04c-0.16-0.89-0.18-1.81-0.06-2.7c0-0.16-0.13-0.18-0.16-0.06		c-0.17,0.98-0.17,1.99,0,2.97c0.01,0.05,0.01,0.1,0,0.14l-0.53,0.48c-0.07,0.06-0.15,0.1-0.24,0.13c-0.49,0.05-0.98,0.14-1.47,0.25		c-0.02-0.02-0.04-0.05-0.04-0.08c-0.03-0.96,0.05-1.91,0.24-2.85c0-0.16-0.13-0.15-0.17-0.03c-0.25,0.96-0.36,1.96-0.33,2.95		c0,0.04-0.01,0.07-0.04,0.1c-0.59,0.15-1.16,0.35-1.72,0.6c-0.38,0.17-0.73,0.35-1.04,0.52c0.08-1.19,0.94-5.59,6.82-7.86		c1.09-0.45,2.21-0.84,3.35-1.16c0.22-0.06,0.14,0,0.1,0.12c-0.42,0.62-0.73,1.31-0.93,2.03c-0.64,2.64-1.08,3.24-1.78,4.3		C57.04,40.19,56.7,40.55,56.31,40.84L56.31,40.84z M21.74,43.59c0.03,0,0.05,0,0.08,0c0.16,0.19,0.33,0.36,0.51,0.53		c0.14,0.12,0.42-0.03,0.27-0.19c-1.39-1.29-2.37-2.97-2.82-4.81c-0.04-0.14-0.17-0.1-0.14,0.06c0.09,0.57,0.25,1.12,0.47,1.65v0.04		c-0.46-0.33-0.89-0.7-1.28-1.11c-0.09-0.1-0.18-0.05-0.12,0.06c0.42,0.57,0.95,1.05,1.56,1.41c0.03,0,0.06,0,0.08,0.04		c0.3,0.68,0.68,1.33,1.13,1.92v0.04c-1.1-0.28-2.07-0.91-2.79-1.79c-0.12-0.12-0.2,0-0.12,0.12C19.35,42.6,20.47,43.33,21.74,43.59		L21.74,43.59z"/></g></svg>